<svg width="32" height="32" viewBox="0 0 32 32" fill="none" xmlns="http://www.w3.org/2000/svg">
<path fill-rule="evenodd" clip-rule="evenodd" d="M24 18H26V25L23 28H16V26H18H20H22.1716L24 24.1716V24V20V18ZM24 15H26V7L23 4H9L6 7V15H8V13V12V7.82843L9.82843 6H22.1716L24 7.82843V12V13V15Z" fill="white"/>
<rect x="16" y="24" width="2" height="4" fill="white"/>
<path fill-rule="evenodd" clip-rule="evenodd" d="M10 13H4V20H10V13ZM8 15H6V18H8V15Z" fill="white"/>
<path fill-rule="evenodd" clip-rule="evenodd" d="M28 13H22V20H28V13ZM26 15H24V18H26V15Z" fill="white"/>
</svg>
