<svg width="32" height="32" viewBox="0 0 32 32" fill="none" xmlns="http://www.w3.org/2000/svg">
<mask id="path-1-inside-1_113_154" fill="white">
<path fill-rule="evenodd" clip-rule="evenodd" d="M11 25C18.732 25 25 18.732 25 11C25 8.41679 24.3004 5.99699 23.0803 3.91974C27.2206 6.35162 30 10.8512 30 16C30 23.732 23.732 30 16 30C10.8512 30 6.35162 27.2206 3.91974 23.0803C5.99699 24.3004 8.41679 25 11 25Z"/>
</mask>
<path d="M23.0803 3.91974L24.0932 2.19522L17.4591 -1.70144L21.3557 4.93267L23.0803 3.91974ZM3.91974 23.0803L4.93267 21.3557L-1.70144 17.4591L2.19522 24.0932L3.91974 23.0803ZM23 11C23 17.6274 17.6274 23 11 23V27C19.8366 27 27 19.8366 27 11H23ZM21.3557 4.93267C22.4004 6.71121 23 8.78254 23 11H27C27 8.05104 26.2003 5.28277 24.8048 2.90681L21.3557 4.93267ZM22.0673 5.64426C25.6214 7.7318 28 11.5892 28 16H32C32 10.1132 28.8197 4.97144 24.0932 2.19522L22.0673 5.64426ZM28 16C28 22.6274 22.6274 28 16 28V32C24.8366 32 32 24.8366 32 16H28ZM16 28C11.5892 28 7.7318 25.6214 5.64426 22.0673L2.19522 24.0932C4.97144 28.8197 10.1132 32 16 32V28ZM11 23C8.78254 23 6.71121 22.4004 4.93267 21.3557L2.90681 24.8048C5.28277 26.2003 8.05104 27 11 27V23Z" fill="white" mask="url(#path-1-inside-1_113_154)"/>
<path d="M9.46411 6V14" stroke="white" stroke-width="2"/>
<path d="M6 8L12.9282 12" stroke="white" stroke-width="2"/>
<path d="M12.9282 8L5.99999 12" stroke="white" stroke-width="2"/>
</svg>
