<svg width="32" height="32" viewBox="0 0 32 32" fill="none" xmlns="http://www.w3.org/2000/svg">
<mask id="path-1-inside-1_42_431" fill="white">
<path fill-rule="evenodd" clip-rule="evenodd" d="M7.375 19.625L4 23V28H28V23L24.625 19.625L22.25 22H9.75L7.375 19.625Z"/>
</mask>
<path d="M7.375 19.625L8.78921 18.2108L7.375 16.7966L5.96079 18.2108L7.375 19.625ZM4 23L2.58579 21.5858L2 22.1716V23H4ZM4 28H2V30H4V28ZM28 28V30H30V28H28ZM28 23H30V22.1716L29.4142 21.5858L28 23ZM24.625 19.625L26.0392 18.2108L24.625 16.7966L23.2108 18.2108L24.625 19.625ZM22.25 22V24H23.0784L23.6642 23.4142L22.25 22ZM9.75 22L8.33579 23.4142L8.92157 24H9.75V22ZM5.96079 18.2108L2.58579 21.5858L5.41421 24.4142L8.78921 21.0392L5.96079 18.2108ZM2 23V28H6V23H2ZM4 30H28V26H4V30ZM30 28V23H26V28H30ZM29.4142 21.5858L26.0392 18.2108L23.2108 21.0392L26.5858 24.4142L29.4142 21.5858ZM23.2108 18.2108L20.8358 20.5858L23.6642 23.4142L26.0392 21.0392L23.2108 18.2108ZM22.25 20H9.75V24H22.25V20ZM11.1642 20.5858L8.78921 18.2108L5.96079 21.0392L8.33579 23.4142L11.1642 20.5858Z" fill="white" mask="url(#path-1-inside-1_42_431)"/>
<path d="M9 7.41421L11.4142 5H20.5858L23 7.41421V16.5858L20.5858 19H11.4142L9 16.5858V7.41421Z" stroke="white" stroke-width="2"/>
</svg>
