<?xml version="1.0" encoding="UTF-8"?>
<svg id="_레이어_2" data-name="레이어 2" xmlns="http://www.w3.org/2000/svg" viewBox="0 0 219.05 219.05">
  <defs>
    <style>
      .cls-1 {
        fill: none;
      }

      .cls-2 {
        fill: #0359a0;
      }

      .cls-3 {
        fill: #ebca2b;
      }

      .cls-4 {
        fill: #d22f25;
      }

      .cls-5 {
        fill: #24803a;
      }

      .cls-6 {
        fill: #070001;
      }

      .cls-7 {
        fill: #6e311b;
      }
    </style>
  </defs>
  <g id="_레이어_1-2" data-name="레이어 1">
    <g>
      <g>
        <path class="cls-7" d="m109.52,73.11c-7.51,0-13.6,6.09-13.6,13.6,0,6.15,4.08,11.34,9.68,13.02.62-1.56,2.14-2.67,3.92-2.67s3.31,1.11,3.92,2.67c5.6-1.68,9.68-6.88,9.68-13.02,0-7.51-6.09-13.6-13.6-13.6Z"/>
        <circle class="cls-3" cx="109.52" cy="86.71" r="8.7"/>
        <circle class="cls-2" cx="109.52" cy="101.28" r="4.22"/>
        <g>
          <circle class="cls-3" cx="131.34" cy="97.06" r="8.93"/>
          <circle class="cls-3" cx="87.71" cy="97.06" r="8.93"/>
        </g>
        <path class="cls-2" d="m109.52,73.11c2.13,0,4.15.49,5.95,1.37,1.35-3.66.66-9.98.66-9.98-.74-5.21-3.8-5.21-6.6-5.21h0c-2.8,0-5.86,0-6.6,5.21,0,0-.7,6.32.66,9.98,1.8-.88,3.81-1.37,5.95-1.37Z"/>
        <g>
          <path class="cls-5" d="m109.52,114.71c0,2.1.99,4.51,4.22,5.4s7.74-.25,8.06-2.7-1.72-4.92-5.84-6.13-6.43.7-6.43,3.43Z"/>
          <path class="cls-5" d="m109.52,114.71c0,2.1-.99,4.51-4.22,5.4s-7.74-.25-8.06-2.7c-.32-2.45,1.72-4.92,5.84-6.13,4.13-1.21,6.43.7,6.43,3.43Z"/>
        </g>
        <path class="cls-3" d="m117.93,107.21c-1.94-1.65-4.04-2.4-5.65-2.73-.74.64-1.7,1.02-2.75,1.02s-2.01-.39-2.75-1.02c-1.62.33-3.72,1.08-5.65,2.73-3.88,3.3-4.76,6.86-3.88,10.2-.32-2.45,1.72-4.92,5.84-6.13s6.43.7,6.43,3.43c0-2.73,2.31-4.64,6.43-3.43s6.16,3.68,5.84,6.13c.89-3.34,0-6.89-3.88-10.2Z"/>
        <g>
          <path class="cls-5" d="m142.4,95.96c0-.29-.03-.58-.06-.86-.02-.14-.04-.28-.06-.41-.02-.15-.05-.31-.08-.46-.07-.39-.16-.76-.28-1.12-.05-.16-.1-.32-.16-.48-.04-.12-.09-.25-.13-.36-.05-.13-.11-.26-.16-.38-.23-.53-.5-1.02-.81-1.48-.05-.08-.1-.15-.15-.23,0,0-.01-.01-.02-.02-.04-.05-.07-.1-.11-.15-.04-.06-.08-.11-.12-.17-4.33-5.52-14.66-3.9-18.87,3.48-.03.05-.06.1-.09.15h-.01c-.43.75-.93,1.44-1.48,2.09-.56.64-1.17,1.23-1.84,1.77-.33.27-.68.52-1.04.75-.18.12-.36.23-.54.34-.18.11-.36.21-.54.3-.04.02-.08.04-.12.06-.13.07-.27.14-.4.2-.06.04-.13.06-.19.09-.16.08-.33.15-.49.21-.16.07-.32.13-.48.19-.25.09-.49.17-.74.25.04.09.07.18.1.28.06.18.11.37.14.57,0,.02.01.04.01.07.02.08.03.16.03.24,1.01.19,2.17.44,3.48.79,4.75,1.26,9.71,6.36,16.12,5.31.2-.04.39-.07.58-.11.16-.03.32-.07.47-.1.17-.04.34-.08.5-.12.17-.05.33-.09.48-.14.31-.1.61-.2.9-.31.15-.06.3-.12.44-.18.13-.06.26-.12.38-.18.01,0,.02,0,.03-.01l.09-.05c.2-.1.39-.21.57-.32.04-.03.07-.05.11-.07.24-.15.47-.31.69-.48,0-.01.01-.01.02-.02.11-.09.22-.18.33-.27.33-.27.63-.58.9-.91.05-.06.1-.11.15-.17.04-.05.08-.1.96-1.46.06-.1.11-.2.16-.3.06-.11.11-.22.16-.33l.39-.92c.07-.18.13-.35.19-.53.12-.35.22-.71.3-1.06.04-.18.08-.35.11-.53.16-.84.21-1.68.18-2.49Zm-11.06,10.02c-4.93,0-8.93-3.99-8.93-8.93s4-8.93,8.93-8.93,8.93,3.99,8.93,8.93-4,8.93-8.93,8.93Z"/>
          <path class="cls-5" d="m104.86,99.49c-.16-.06-.33-.13-.48-.19-.17-.07-.33-.14-.49-.21-.07-.03-.13-.06-.19-.09-.13-.06-.27-.13-.4-.2-.04-.02-.08-.04-.12-.06-.18-.1-.36-.2-.54-.3-.19-.11-.37-.22-.54-.34-.36-.24-.71-.49-1.04-.75-.66-.53-1.28-1.12-1.84-1.77-.55-.65-1.05-1.34-1.48-2.09h-.01c-.03-.06-.06-.11-.09-.16-4.2-7.38-14.53-9.01-18.87-3.48-.05.06-.09.11-.12.17-.04.05-.08.1-.11.15,0,0-.01.01-.01.02-.05.08-.1.15-.15.23-.31.46-.58.95-.81,1.48-.06.12-.11.25-.16.38-.05.12-.09.24-.13.36-.06.16-.11.32-.16.48-.12.37-.21.74-.28,1.12-.03.15-.06.31-.08.46-.02.14-.04.27-.06.41-.03.29-.05.57-.06.86-.03.81.02,1.65.18,2.49.04.18.07.35.11.53.08.35.18.71.3,1.06.06.18.12.35.19.53l.39.92c.05.11.11.22.16.33.05.1.1.2.16.3.88,1.36.92,1.41.96,1.46.05.06.1.12.15.17.28.33.58.64.9.91.11.1.22.19.33.27,0,0,.01,0,.02.02.22.17.45.33.69.48.04.02.07.04.11.07.19.11.38.22.57.32.04.02.08.04.12.06.13.07.25.12.38.18.15.06.29.12.44.18.29.11.59.21.9.31.16.05.32.09.48.14.16.04.33.08.5.12.16.04.31.07.47.1.19.04.39.07.58.11,6.41,1.05,11.37-4.05,16.12-5.31,1.31-.35,2.47-.6,3.48-.79,0-.05.01-.1.02-.15,0-.03,0-.06.01-.09.01-.07.02-.14.04-.21.04-.17.08-.33.13-.48.02-.08.05-.15.08-.22-.25-.08-.5-.16-.74-.25Zm-17.15,6.5c-4.93,0-8.93-3.99-8.93-8.93s4-8.93,8.93-8.93,8.93,3.99,8.93,8.93-4,8.93-8.93,8.93Z"/>
        </g>
        <path class="cls-6" d="m120.81,114.19c.55.69.88,1.43.99,2.19-.11-.76-.44-1.5-.99-2.19Z"/>
        <path class="cls-4" d="m171.8,95.88s-8.66,3.8-15.05,2.48c-6.3-1.29-13.36.99-16.79,5.21-.05.06-.1.11-.15.17,0,0,0,0,0,0-1.49,1.75-3.57,2.75-6.49,3.23-6.41,1.05-11.37-4.05-16.12-5.31-1.3-.35-2.47-.6-3.47-.79.01.13.02.27.02.41,0,1.28-.57,2.42-1.47,3.2h0c1.62.33,3.72,1.08,5.65,2.73,3.88,3.3,4.76,6.86,3.88,10.2h0c-.32,2.45-4.83,3.59-8.06,2.7s-4.22-3.3-4.22-5.4c0,2.1-.99,4.51-4.22,5.4-3.23.89-7.74-.25-8.06-2.7h0c-.89-3.34,0-6.89,3.88-10.2,1.94-1.65,4.04-2.4,5.65-2.73h0c-.9-.77-1.47-1.92-1.47-3.2,0-.14,0-.27.02-.41-1.01.19-2.17.44-3.47.79-4.75,1.26-9.71,6.36-16.12,5.31-2.92-.48-4.99-1.48-6.49-3.23,0,0,0,0,0,0-.05-.06-.1-.11-.15-.17-3.43-4.22-10.49-6.51-16.79-5.21-6.39,1.31-15.05-2.48-15.05-2.48,0,0,13.04,19.9,12.08,37.84,0,0,3.24-2.19,3.33-7.35,0,0,6.03,11.88,2.93,26.11,0,0,11.77-.12,21.66-15.52,0,0,.53,5.16-1.4,9.28,0,0,7.46-1.72,12.86-7.12,4.37-4.37,6.75-6.27,10.82-6.27s6.44,1.9,10.82,6.27c5.41,5.41,12.86,7.12,12.86,7.12-1.93-4.11-1.4-9.28-1.4-9.28,9.89,15.4,21.66,15.52,21.66,15.52-3.1-14.23,2.93-26.11,2.93-26.11.09,5.16,3.33,7.35,3.33,7.35-.96-17.94,12.08-37.84,12.08-37.84Z"/>
        <path class="cls-6" d="m97.25,116.38c.11-.76.44-1.5.99-2.19-.55.69-.88,1.43-.99,2.19Z"/>
        <path class="cls-2" d="m151.99,104.48c-4.88-.64-9.83,3.71-16.76,5.92-4.78,1.52-10.58,1.65-13.71,1.59.71,1.82.74,3.65.27,5.42h0c-.32,2.45-4.83,3.59-8.06,2.7s-4.22-3.3-4.22-5.4c0,2.1-.99,4.51-4.22,5.4-3.23.89-7.74-.25-8.06-2.7h0c-.47-1.77-.44-3.6.27-5.42-3.13.06-8.92-.07-13.71-1.59-6.92-2.2-11.88-6.56-16.76-5.92-4.88.64-6.06,4.17-4.96,7.52,1.1,3.35,4.88,10.35,6.61,21.68,1.73,11.33,9.13,6.45,12.43,3.23,3.3-3.23,12.02-8.5,28.39-8.5s25.08,5.27,28.39,8.5c3.3,3.23,10.7,8.1,12.43-3.23,1.73-11.33,5.51-18.33,6.61-21.68,1.1-3.35-.08-6.87-4.96-7.52Z"/>
        <g>
          <path class="cls-3" d="m114.82,128.61c2.91.22,5.54.61,7.89,1.13,2.42-6.47-.59-10-.59-10-2.17,4.45-5.27,7.48-7.3,8.88Z"/>
          <path class="cls-3" d="m136,126.23c2.52,4.66,1.66,8.01.81,9.7.42.34.78.67,1.1.97,1.85,1.8,4.97,4.12,7.67,3.84-1.28-11.97-9.58-14.51-9.58-14.51Z"/>
          <path class="cls-3" d="m127.04,123.45s7.24-2.02,6.62-12.61c-1.99.5-4.08.79-6.03.96.84,2.36,1.59,6.51-.59,11.66Z"/>
          <path class="cls-3" d="m148.27,113.09c6.17-.96,7.34-4.61,7.37-7.16-.85-.72-2.05-1.24-3.64-1.45-.94-.12-1.89-.06-2.85.14,2.07,4.42-.87,8.47-.87,8.47Z"/>
          <path class="cls-3" d="m114.97,124.12c.02-.55-.42-1.01-.98-1.01h-3.49c-.54,0-.98.44-.98.98v4.32c1.73,0,3.37.06,4.94.17.34-1.2.46-3.36.5-4.46Z"/>
          <path class="cls-3" d="m150.57,132.3c.6-3.47,1.38-6.52,2.2-9.15-1.79-.34-4.61-1.59-8.25-5.47,0,0-1.49,8.62,6.04,14.63Z"/>
          <path class="cls-3" d="m104.23,128.61c-2.91.22-5.54.61-7.89,1.13-2.42-6.47.59-10,.59-10,2.17,4.45,5.27,7.48,7.3,8.88Z"/>
          <path class="cls-3" d="m83.05,126.23c-2.52,4.66-1.66,8.01-.81,9.7-.42.34-.78.67-1.1.97-1.85,1.8-4.97,4.12-7.67,3.84,1.28-11.97,9.58-14.51,9.58-14.51Z"/>
          <path class="cls-3" d="m92.01,123.45s-7.24-2.02-6.62-12.61c1.99.5,4.08.79,6.03.96-.84,2.36-1.59,6.51.59,11.66Z"/>
          <path class="cls-3" d="m70.78,113.09c-6.17-.96-7.34-4.61-7.37-7.16.85-.72,2.05-1.24,3.64-1.45.94-.12,1.89-.06,2.85.14-2.07,4.42.87,8.47.87,8.47Z"/>
          <path class="cls-3" d="m104.08,124.12c-.02-.55.42-1.01.98-1.01h3.49c.54,0,.98.44.98.98v4.32c-1.73,0-3.37.06-4.94.17-.34-1.2-.46-3.36-.5-4.46Z"/>
          <path class="cls-3" d="m68.48,132.3c-.6-3.47-1.38-6.52-2.2-9.15,1.79-.34,4.61-1.59,8.25-5.47,0,0,1.49,8.62-6.04,14.63Z"/>
        </g>
        <polygon class="cls-6" points="139.81 103.74 139.81 103.74 139.81 103.74 139.81 103.74"/>
        <path class="cls-4" d="m168.99,82.22c5.37.51,9.84,2.2,17.81-1.08-2.88.23-7.18.06-12.5-2.66-5.32-2.71-9.71-4.42-14.08-3.51-2.78.58-5.09,1.86-6.48,2.78-.71,1.81-2.05,3.58-4.41,5.24,1.45-.1,3.37-.11,5.13.26,1.77.37,3.32.97,5,1.29.02-.01,4.18-2.83,9.53-2.32Z"/>
        <path class="cls-2" d="m168.99,82.22c-5.36-.51-9.51,2.31-9.53,2.32,1.54.29,3.19.34,5.22-.26,0,0-.81,9.07-7.22,14.2,2.04.3,4.27.13,6.34-.24,3.94-7.61,6.93-7.21,13.89-9.41,7.63-2.41,9.1-7.69,9.1-7.69-7.97,3.28-12.44,1.59-17.81,1.08Z"/>
        <polygon class="cls-6" points="79.24 103.74 79.24 103.74 79.24 103.74 79.24 103.74"/>
        <path class="cls-4" d="m65.31,77.76c-1.39-.92-3.7-2.2-6.48-2.78-4.37-.91-8.76.79-14.08,3.51-5.32,2.71-9.61,2.88-12.5,2.66,7.97,3.28,12.44,1.59,17.81,1.08,5.36-.51,9.51,2.31,9.53,2.32,1.68-.31,3.23-.91,5-1.29,1.76-.37,3.68-.36,5.13-.26-2.36-1.66-3.7-3.42-4.41-5.24Z"/>
        <path class="cls-2" d="m50.06,82.22c-5.37.51-9.84,2.2-17.81-1.08,0,0,1.47,5.28,9.1,7.69,6.96,2.2,9.95,1.8,13.89,9.41,2.07.36,4.3.54,6.34.24-6.41-5.13-7.22-14.2-7.22-14.2,2.03.6,3.68.55,5.22.26-.02-.01-4.18-2.83-9.53-2.32Z"/>
        <g>
          <path class="cls-3" d="m99.73,61.69c2.33,0,3.78.52,3.78.52h0c-.26.62-.46,1.37-.59,2.28,0,0-.7,6.32.66,9.98,0,0,0,0,0,0-2.05,1-3.8,2.49-5.11,4.33-1.34-1.53-2.95-3.83-3.78-9.03-.91-5.68,2.72-8.08,5.05-8.08Z"/>
          <path class="cls-3" d="m119.32,61.69c-2.33,0-3.78.52-3.78.52h0c.26.62.46,1.37.59,2.28,0,0,.7,6.32-.66,9.98,0,0,0,0,0,0,2.05,1,3.8,2.49,5.11,4.33,1.34-1.53,2.95-3.83,3.78-9.03.91-5.68-2.72-8.08-5.05-8.08Z"/>
        </g>
        <path class="cls-2" d="m124.5,68.11s0,0,0,0c6.58.65,8.88,3.55,11.91,5.9,6.79-1.78,8.24-7.42,8.24-7.42-5.51,1.58-8.23-.65-10.18-2.15-1.95-1.5-3.85-3.06-6.96-3.03-2.02.01-3.58,1.04-4.62,2.02.94,1.04,1.62,2.58,1.61,4.68Z"/>
        <path class="cls-2" d="m94.55,68.11s0,0,0,0c-6.58.65-8.88,3.55-11.91,5.9-6.79-1.78-8.24-7.42-8.24-7.42,5.51,1.58,8.23-.65,10.18-2.15,1.95-1.5,3.85-3.06,6.96-3.03,2.02.01,3.58,1.04,4.62,2.02-.94,1.04-1.62,2.58-1.61,4.68Z"/>
        <path class="cls-4" d="m85.11,80.8c7.66.04,10.84,6.86,10.84,6.86h0c-.02-.31-.03-.63-.03-.95,0-2.95.94-5.68,2.54-7.91-1.34-1.53-2.95-3.83-3.78-9.03-.09-.59-.13-1.15-.13-1.67-9.79.96-10.11,6.92-17.42,8.63-9.82,2.3-12.49-4.3-12.49-4.3,2.68,10.86,12.81,8.33,20.47,8.37Z"/>
        <path class="cls-2" d="m95.96,87.66s-3.18-6.82-10.84-6.86c-7.66-.04-17.79,2.49-20.47-8.37-.28,4.09.62,8.19,6.94,11.73,4.06,2.28,6.05,4.63,6.96,6.03.08-.11.16-.23.24-.33,4.36-5.56,14.81-3.87,18.95,3.63h.01c-1-1.74-1.64-3.71-1.79-5.83h0Z"/>
        <path class="cls-7" d="m76.65,95.96h0c.08-2.32.86-4.48,2.13-6.11-.08.11-.16.22-.24.33-.91-1.4-2.9-3.76-6.96-6.03-.68-.38-1.29-.77-1.85-1.16-1.45-.1-3.37-.11-5.13.26-3.39.71-5.98,2.28-10.22,1.03,4.14,3.32,8.47,4.83,14.48,6.42,6.01,1.59,7.79,5.26,7.79,5.26Z"/>
        <path class="cls-3" d="m76.65,95.97h0s-1.78-3.68-7.79-5.27c-6.01-1.59-10.34-3.09-14.48-6.42,0,0,.81,9.07,7.22,14.2.24-.03.48-.07.72-.12,6.3-1.29,13.36.99,16.79,5.21,0,0,0,0,0,0-.67-.83-1.22-1.83-1.67-3.01-.59-1.54-.82-3.1-.77-4.6Z"/>
        <path class="cls-4" d="m133.94,80.8c-7.66.04-10.84,6.86-10.84,6.86h0c.02-.31.03-.63.03-.95,0-2.95-.94-5.68-2.54-7.91,1.34-1.53,2.95-3.83,3.78-9.03.09-.59.13-1.15.13-1.67,9.79.96,10.11,6.92,17.42,8.63,9.82,2.3,12.49-4.3,12.49-4.3-2.68,10.86-12.81,8.33-20.47,8.37Z"/>
        <path class="cls-2" d="m123.09,87.66s3.18-6.82,10.84-6.86c7.66-.04,17.79,2.49,20.47-8.37.28,4.09-.62,8.19-6.94,11.73-4.06,2.28-6.05,4.63-6.96,6.03-.08-.11-.16-.23-.24-.33-4.36-5.56-14.81-3.87-18.95,3.63h-.01c1-1.74,1.64-3.71,1.79-5.83h0Z"/>
        <path class="cls-7" d="m142.4,95.96h0c-.08-2.32-.86-4.48-2.13-6.11.08.11.16.22.24.33.91-1.4,2.9-3.76,6.96-6.03.68-.38,1.29-.77,1.85-1.16,1.45-.1,3.37-.11,5.13.26,3.39.71,5.98,2.28,10.22,1.03-4.14,3.32-8.47,4.83-14.48,6.42-6.01,1.59-7.79,5.26-7.79,5.26Z"/>
        <path class="cls-3" d="m142.4,95.97h0s1.78-3.68,7.79-5.27c6.01-1.59,10.34-3.09,14.48-6.42,0,0-.81,9.07-7.22,14.2-.24-.03-.48-.07-.72-.12-6.3-1.29-13.36.99-16.79,5.21,0,0,0,0,0,0,.67-.83,1.22-1.83,1.67-3.01.59-1.54.82-3.1.77-4.6Z"/>
      </g>
      <rect class="cls-1" width="219.05" height="219.05"/>
    </g>
  </g>
</svg>