<?xml version="1.0" encoding="UTF-8"?>
<svg id="_레이어_2" data-name="레이어 2" xmlns="http://www.w3.org/2000/svg" viewBox="0 0 219.05 219.05">
  <defs>
    <style>
      .cls-1 {
        fill: none;
      }

      .cls-2 {
        fill: #0359a0;
      }

      .cls-3 {
        fill: #ebca2b;
      }

      .cls-4 {
        fill: #d22f25;
      }

      .cls-5 {
        fill: #237c3a;
      }

      .cls-6 {
        fill: #6e311b;
      }
    </style>
  </defs>
  <g id="_레이어_1-2" data-name="레이어 1">
    <g>
      <g>
        <path class="cls-6" d="m154.99,127.56c-.63,5.49-2.15,12.25-5.28,20.24,0,0-18.94,17.04-40.19,31.97-21.25-14.93-40.19-31.97-40.19-31.97-9.91-25.37-3.75-38.18-3.75-38.18,27.69-4.9,43.94-19.41,43.94-19.41,0,0,16.24,14.51,43.94,19.41,0,0,2.88,6.01,1.53,17.94Z"/>
        <g>
          <path class="cls-5" d="m146.7,117.45s0-.09-.02-.16c0-.04-.01-.07-.03-.13-.01-.04-.03-.09-.04-.13-.02-.04-.03-.08-.05-.12-.02-.04-.04-.08-.08-.14-.02-.04-.05-.07-.07-.11-.03-.04-.06-.07-.09-.1-.03-.04-.06-.07-.1-.1-.04-.04-.08-.07-.1-.08l-.18-.12s-.06-.03-.08-.04c-.03-.01-.06-.03-.09-.04l-.1-.04s-.07-.02-.1-.02c-.05-.01-.09-.02-.14-.03-.05,0-.1,0-.16,0-.04,0-.08,0-.12,0-.06,0-.11.01-.15.02-.04,0-.09.02-.15.03-.04.01-.09.03-.13.04-.04.02-.09.03-.14.06-.04.02-.08.04-.1.06-.04.03-.09.05-.12.08-.04.03-.07.06-.12.1-.03.03-.06.06-.09.09-.04.04-.07.08-.07.09l-.08.11c-1.03,1.67-3.23,2.18-4.89,1.15-.81-.5-1.37-1.28-1.59-2.21-.22-.93-.06-1.88.43-2.68.67-1.08,1.8-1.72,3.06-1.68.37.02.76-.13,1.04-.39.29-.27.46-.66.47-1.05,0-.39-.14-.76-.41-1.04s-.64-.44-1.03-.44h-.09c-2.23,0-4.35,1.18-5.52,3.07-.91,1.47-1.19,3.21-.79,4.9.4,1.69,1.43,3.12,2.9,4.03,1.01.62,2.16.96,3.34.97-1.05,1.14-2.53,2.57-4.44,3.92l-.15.11c-2.19,1.52-4.41,2.58-6.62,3.14-.41,0-1.67-.11-2.51-.95-.69-.69-1.01-1.8-.93-3.28.1-1.96.78-3.16,2.02-3.57,1.09-.36,2.19.06,2.39.31.37.46.44,1.27.13,1.68-.2.27-.68.13-1.04-.03-.36-.16-.76-.17-1.12-.03-.37.14-.66.41-.81.77-.16.36-.17.76-.03,1.12.14.37.41.65.77.81,1.64.73,3.24.52,4.29-.54.28.13.58.22.9.27.18.03.37.04.57.04,1.67,0,3.08-1.03,3.59-2.61.25-.77-.18-1.6-.95-1.84-.77-.24-1.59.18-1.84.95-.16.5-.63.61-.92.57-.28-.04-.28-.16-.28-.29v-.08c-.04-.98-.39-1.91-.98-2.64-.96-1.18-3.24-2.01-5.58-1.25-1.41.46-3.82,1.89-4.04,6.2-.11,2.08.36,3.77,1.37,5.04-1.88-.04-4.03-.45-5.79-1.75-2.34-1.73-3.57-4.78-3.65-9.06-.16-7.64,1.98-10.6,3.8-11.75,1.51-.95,3.44-.99,5.17-.11,1.5.76,1.73,2.82,1.47,4.35-.28,1.68-1.32,3.6-2.91,3.81-1.08.15-1.92,0-2.44-.43-.37-.3-.56-.74-.6-1.34-.02-.45.08-.79.28-.88.04-.02.08-.02.1-.02.58.52,1.48.49,2.03-.07.56-.58.55-1.51-.03-2.07-.84-.82-2.17-1.02-3.31-.5-1.34.61-2.09,2-1.99,3.7.07,1.28.54,2.37,1.37,3.18-.11.11-.2.23-.29.35-.7.97-.87,2.14-.49,3.31.29.89.87,1.57,1.66,1.97.53.26,1.13.4,1.81.4.84,0,1.53-.21,1.72-.27.76-.26,1.17-1.09.92-1.85-.26-.76-1.09-1.18-1.85-.93-.33.11-.98.19-1.28.03-.05-.03-.12-.06-.19-.26-.12-.35,0-.55.08-.68.3-.41.99-.66,1.85-.66.04,0,.07,0,.11,0,.34,0,.66-.03.96-.07,3.08-.42,4.93-3.43,5.4-6.23.56-3.31-.63-6.23-3.03-7.45-2.65-1.35-5.66-1.26-8.05.24-2.46,1.55-5.36,5.28-5.17,14.29.08,4.11,1.11,7.36,3.06,9.67-1.53.58-2.52,1.68-2.94,2.59-.16.36-.18.75-.04,1.12.14.37.41.66.76.82.19.09.4.14.61.14.57,0,1.09-.33,1.33-.85.21-.46,1.53-1.96,4.07-.96.81.36,1.68.64,2.6.83-1.29.81-2.49,1.74-3.59,2.78l-.09.08c-.82.75-2.53,2.32-3.28,2.24-.31-.03-.38-.54-.38-.97,0-.81-.66-1.46-1.46-1.46s-1.46.66-1.46,1.46c0,2.41,1.35,3.54,2.65,3.82-.1.18-.18.34-.24.47-2.57,5.21-2.54,9.86-2.07,12.84.33,2.1,1.47,3.48,3.2,3.88.26.06.52.09.79.09,1.64,0,3.04-1.12,3.41-2.71.21-.91.05-1.85-.44-2.64s-1.27-1.35-2.18-1.56c-.38-.09-.77-.02-1.11.18-.33.21-.56.53-.65.91-.09.38-.02.77.18,1.11.21.33.53.56.91.65.31.07.5.38.43.68-.03.15-.12.27-.25.36-.13.08-.28.1-.43.07-.25-.06-.76-.18-.97-1.49-.29-1.87-.39-4.56.49-7.67.45,1.38,1.28,2.39,2.47,3.01,1.69.88,3.65.76,5.43-.32,2.44-1.48,4.14-4.54,4.14-7.4.05-.42.74-1.79,1.35-1.79.51,0,.91,0,.91,1.1,0,.81.66,1.46,1.46,1.46s1.46-.66,1.46-1.46c0-2.45-1.51-4.03-3.84-4.03-.99,0-1.93.43-2.7,1.23-.61-.55-1.38-.89-2.23-.96-1.83-.14-3.93,1.03-4.27,3.23-.12.8.43,1.55,1.22,1.67.8.12,1.55-.43,1.67-1.22.08-.54.73-.78,1.16-.75.72.06.87.84.87,1.49,0,1.86-1.17,3.98-2.73,4.93-.91.56-1.77.63-2.56.23-1-.52-1.43-1.89-1.27-4.08.17-2.37,2.35-4.48,2.37-4.5l.04-.04c2.58-2.45,5.8-4.19,9.56-5.18.23-.06.41-.1.52-.14.66-.16,1.33-.36,1.99-.61-.18.84-.17,1.68.04,2.49.4,1.54,1.29,2.21,1.96,2.51.92.4,2.06.34,2.95-.14.8-.43,1.37-1.16,1.55-2.02.18-.82-.02-1.65-.55-2.34-.49-.64-1.41-.76-2.05-.27-.62.48-.75,1.36-.3,2.02,0,0-.02.01-.03.02-.1.05-.29.08-.39.04-.09-.04-.21-.21-.3-.56-.37-1.42.67-3.16,2.84-4.75,4.89-3.4,8-7.78,8.65-9.8l.02-.05s.02-.09.03-.11c.01-.05.02-.1.03-.14,0-.04,0-.09.01-.15,0-.05,0-.1,0-.13Zm-5.72-8.28h0s0,0,0,0Z"/>
          <path class="cls-5" d="m107.52,135.96c0-.81-.66-1.46-1.46-1.46s-1.46.66-1.46,1.46c0,.42-.07.94-.38.97-.73.09-2.46-1.49-3.28-2.24l-.07-.07c-1.1-1.04-2.3-1.97-3.61-2.79.92-.19,1.78-.46,2.57-.82,2.58-1.01,3.9.49,4.11.94.24.52.76.85,1.33.85.21,0,.42-.05.61-.13.36-.16.63-.46.76-.82.14-.37.12-.77-.04-1.12-.42-.91-1.4-2.01-2.94-2.59,1.95-2.32,2.98-5.57,3.06-9.67.19-9.01-2.71-12.74-5.17-14.29-2.39-1.5-5.4-1.59-8.05-.24-2.4,1.22-3.59,4.14-3.03,7.45.47,2.8,2.33,5.81,5.4,6.23.3.04.61.06.96.07h.1c.86,0,1.56.25,1.85.66.09.12.19.33.08.68-.07.2-.14.24-.19.26-.3.15-.95.08-1.28-.03-.77-.25-1.59.16-1.85.93-.26.76.16,1.59.92,1.85.19.06.87.27,1.72.27.67,0,1.28-.13,1.81-.4.79-.4,1.37-1.08,1.66-1.97.38-1.17.21-2.34-.49-3.31-.09-.12-.19-.24-.29-.35.83-.81,1.3-1.9,1.37-3.18.09-1.71-.65-3.09-1.99-3.7-1.14-.52-2.47-.32-3.31.5-.58.56-.59,1.49-.03,2.07.55.56,1.45.59,2.03.07.02,0,.06,0,.1.02.2.09.31.43.28.88-.03.6-.23,1.04-.6,1.34-.52.43-1.37.58-2.44.43-1.6-.22-2.63-2.13-2.91-3.81-.26-1.53-.03-3.59,1.47-4.35,1.72-.88,3.65-.83,5.17.11,1.82,1.14,3.96,4.11,3.8,11.75-.09,4.28-1.32,7.33-3.65,9.06-1.76,1.3-3.91,1.71-5.79,1.75,1.02-1.27,1.48-2.96,1.38-5.04-.22-4.32-2.62-5.74-4.04-6.2-2.34-.77-4.62.07-5.58,1.25-.59.72-.93,1.65-.98,2.65v.06c0,.12,0,.24-.28.29-.28.05-.76-.07-.92-.57-.25-.77-1.07-1.19-1.84-.95-.77.25-1.19,1.07-.95,1.84.51,1.59,1.92,2.61,3.59,2.61.19,0,.38-.01.57-.04.32-.05.62-.14.9-.27,1.04,1.06,2.64,1.28,4.29.54.36-.16.63-.45.77-.81.14-.37.13-.76-.03-1.12-.16-.36-.45-.63-.81-.77-.37-.14-.76-.13-1.12.03-.36.16-.84.3-1.04.03-.31-.4-.25-1.22.13-1.68.21-.25,1.3-.67,2.39-.31,1.24.41,1.92,1.61,2.02,3.57.08,1.48-.24,2.58-.93,3.28-.85.85-2.11.94-2.51.95-2.2-.56-4.43-1.62-6.63-3.15l-.14-.1c-1.91-1.35-3.4-2.78-4.44-3.92,1.18-.01,2.34-.34,3.34-.97,1.47-.91,2.5-2.34,2.9-4.03.4-1.69.12-3.43-.79-4.9-1.17-1.9-3.29-3.07-5.52-3.07h-.1c-.81.01-1.45.68-1.44,1.49,0,.39.18.78.47,1.05.28.27.67.41,1.03.39,1.26-.04,2.4.6,3.07,1.68.5.81.65,1.76.43,2.68-.22.93-.78,1.71-1.59,2.21-1.67,1.03-3.86.51-4.89-1.15l-.05-.07s-.06-.09-.1-.13c-.03-.03-.06-.07-.11-.11-.03-.03-.07-.06-.1-.09-.04-.03-.09-.06-.12-.08-.04-.02-.07-.04-.13-.07-.04-.02-.09-.04-.12-.05-.04-.02-.09-.03-.14-.05-.04-.01-.09-.02-.12-.02-.05,0-.11-.02-.16-.02-.04,0-.08,0-.13,0-.05,0-.1,0-.15.01-.05,0-.09.02-.12.02l-.09.02-.12.04s-.06.02-.08.03c-.03.01-.06.03-.1.05-.03.01-.06.03-.09.05l-.07.05s-.09.06-.13.1c-.04.03-.07.07-.09.09-.03.04-.07.07-.1.11-.03.03-.05.07-.09.13-.02.04-.04.07-.06.11-.02.04-.04.09-.06.15-.01.04-.03.08-.04.12-.01.04-.02.09-.03.13,0,.05-.01.09-.02.14s0,.09,0,.16c0,.04,0,.09,0,.12,0,.05.02.1.02.13,0,.04.02.08.03.12l.02.05c.65,2.02,3.77,6.4,8.64,9.8,2.18,1.6,3.22,3.33,2.85,4.76-.09.36-.22.52-.31.56-.1.04-.29.01-.39-.04-.01,0-.03-.02-.04-.02.46-.64.34-1.54-.3-2.02-.64-.49-1.56-.37-2.05.27-.53.69-.73,1.53-.55,2.34.18.85.75,1.59,1.55,2.02.88.47,2.03.54,2.95.14.68-.3,1.57-.97,1.97-2.51.21-.8.22-1.64.04-2.49.66.24,1.32.44,1.97.6.13.04.31.09.53.14,3.78,1,7,2.75,9.57,5.18l.04.04s2.2,2.13,2.37,4.5c.15,2.19-.27,3.56-1.27,4.08-.78.41-1.64.33-2.56-.23-1.56-.95-2.73-3.07-2.73-4.93,0-.94.29-1.44.87-1.49.43-.03,1.07.21,1.16.75.06.39.27.73.58.96s.7.33,1.09.27c.8-.12,1.35-.87,1.22-1.67-.34-2.2-2.44-3.36-4.27-3.23-.85.07-1.62.4-2.23.96-.77-.8-1.7-1.23-2.7-1.23-2.37,0-3.84,1.54-3.84,4.03,0,.81.66,1.46,1.46,1.46s1.46-.66,1.46-1.46c0-1.1.4-1.1.91-1.1.61,0,1.3,1.36,1.35,1.76,0,2.9,1.7,5.95,4.14,7.43,1.78,1.08,3.74,1.2,5.43.32,1.19-.62,2.02-1.63,2.47-3.01.88,3.11.79,5.8.49,7.67-.21,1.31-.72,1.43-.97,1.49-.15.03-.3.01-.43-.07-.13-.08-.22-.2-.25-.36-.07-.31.12-.61.43-.68.38-.09.71-.32.91-.65.21-.33.27-.72.18-1.11-.09-.38-.32-.71-.65-.91-.33-.21-.73-.27-1.11-.19-.91.21-1.68.76-2.18,1.56-.5.79-.65,1.73-.44,2.64.37,1.6,1.77,2.71,3.41,2.71.26,0,.53-.03.79-.09,1.73-.4,2.87-1.78,3.2-3.88.47-2.98.49-7.63-2.07-12.84-.06-.13-.14-.29-.24-.47,1.29-.28,2.65-1.41,2.65-3.82Zm-29.54-26.78h0s0,0,0,0Zm-4.5,7.74s0,0,0,0h0s0,0,0,0Z"/>
        </g>
        <path class="cls-3" d="m120.06,156.82c-5.09,3.21-10.53,8.03-10.53,12.86,0-4.83-5.44-9.65-10.53-12.86-5.09-3.21-30.78-20.17-34.93-29.26.63,5.49,2.15,12.25,5.28,20.24,0,0,18.94,17.04,40.19,31.97,21.25-14.93,40.19-31.97,40.19-31.97,3.13-8,4.65-14.75,5.28-20.24-4.15,9.09-29.84,26.05-34.93,29.26Z"/>
        <path class="cls-2" d="m155.47,143.07s3.96-10.19,4.4-22.58c.54-15.57-3.37-24.45,4.69-38.03,0,0-.48,5.31,1.43,24.7,2.05,20.71-10.52,35.9-10.52,35.9Z"/>
        <path class="cls-3" d="m155.47,143.07s12.1-16.51,10.52-35.9c-1.06-12.97-3.39-23.22,7.64-43.16,0,0-1.51,11.47,2.17,35.87,3.94,26.18-20.33,43.19-20.33,43.19Z"/>
        <path class="cls-4" d="m155.47,143.07s23.45-18.6,20.33-43.19c-2.3-18.1-3.91-43.68,14.19-60.6,0,0-8.86,26.75-3.87,60.42,4.04,27.23-30.65,43.37-30.65,43.37Z"/>
        <path class="cls-6" d="m155.47,143.07s2.01-5.56,1.6-10.54c0,0,2.24,2.77,1.74,6.09,0,0,2.38-.69,5.67-.11,0,0-3.1,2.16-9.01,4.57Z"/>
        <path class="cls-2" d="m63.58,143.07s-3.96-10.19-4.4-22.58c-.54-15.57,3.37-24.45-4.69-38.03,0,0,.48,5.31-1.43,24.7-2.05,20.71,10.52,35.9,10.52,35.9Z"/>
        <path class="cls-3" d="m63.58,143.07s-12.1-16.51-10.52-35.9c1.06-12.97,3.39-23.22-7.64-43.16,0,0,1.51,11.47-2.17,35.87-3.94,26.18,20.33,43.19,20.33,43.19Z"/>
        <path class="cls-4" d="m63.58,143.07s-23.45-18.6-20.33-43.19c2.3-18.1,3.91-43.68-14.19-60.6,0,0,8.86,26.75,3.87,60.42-4.04,27.23,30.65,43.37,30.65,43.37Z"/>
        <path class="cls-6" d="m63.58,143.07s-2.01-5.56-1.6-10.54c0,0-2.24,2.77-1.74,6.09,0,0-2.38-.69-5.67-.11,0,0,3.1,2.16,9.01,4.57Z"/>
      </g>
      <rect class="cls-1" width="219.05" height="219.05"/>
    </g>
  </g>
</svg>