<?xml version="1.0" encoding="UTF-8"?>
<svg id="_레이어_2" data-name="레이어 2" xmlns="http://www.w3.org/2000/svg" viewBox="0 0 219.05 219.05">
  <defs>
    <style>
      .cls-1 {
        fill: none;
      }

      .cls-2 {
        fill: #ebca2b;
      }

      .cls-3 {
        fill: #24803a;
      }
    </style>
  </defs>
  <g id="_레이어_1-2" data-name="레이어 1">
    <g>
      <g>
        <path class="cls-2" d="m205.11,41.33c-5.87,17.95-8.72,33.82-8.72,48.52,0,19.69,4.68,32.51,4.73,32.63l.61,1.63-.91,1.46c-13.74,22.05-41.14,46.53-61.71,63.17-15.37,12.44-27.43,20.92-27.55,21l-2.02,1.41-2.02-1.41c-.12-.08-12.18-8.56-27.55-21-20.57-16.65-47.97-41.12-61.71-63.17l-.92-1.46.61-1.63c.05-.13,4.73-12.82,4.73-32.63,0-14.7-2.85-30.57-8.72-48.52l-.81-2.48,2.14-1.5C43.02,18.08,75.61,7.88,109.52,7.88s66.51,10.19,94.25,29.47l2.15,1.5-.81,2.48Z"/>
        <path class="cls-3" d="m192.87,89.86c0,20.66,4.95,33.86,4.95,33.86-23.51,37.73-88.3,83.15-88.3,83.15,0,0-64.8-45.43-88.3-83.15,0,0,4.95-13.2,4.95-33.86s-5.28-38.55-8.9-49.62c26.17-18.19,57.96-28.85,92.25-28.85s66.08,10.66,92.25,28.85c-3.62,11.07-8.9,29.72-8.9,49.62Z"/>
      </g>
      <rect class="cls-1" width="219.05" height="219.05"/>
    </g>
  </g>
</svg>