<?xml version="1.0" encoding="UTF-8"?>
<svg id="_레이어_2" data-name="레이어 2" xmlns="http://www.w3.org/2000/svg" viewBox="0 0 233.79 31.79">
  <defs>
    <style>
      .cls-1 {
        fill: #e71f19;
      }
    </style>
  </defs>
  <g id="_레이어_1-2" data-name="레이어 1">
    <polygon class="cls-1" points="0 0 0 14.96 14.96 14.96 14.96 11.22 16.83 11.22 16.83 14.96 31.8 14.96 31.8 0 16.83 0 16.83 3.74 14.96 3.74 14.96 0 0 0"/>
    <polygon class="cls-1" points="84.16 31.79 84.16 16.83 115.96 16.83 115.96 31.79 106.61 31.79 106.61 28.05 104.74 28.05 104.74 31.79 95.39 31.79 95.38 28.05 93.51 28.05 93.51 31.79 84.16 31.79"/>
    <path class="cls-1" d="m16.83,16.83v14.96h14.96v-3.74h1.87v3.74h14.96v-14.96h-31.8Zm16.83,7.48h-1.87v-3.74h1.87v3.74Z"/>
    <path class="cls-1" d="m134.66,0v14.96h14.96v-3.74h1.87v3.74h14.96V0h-31.8Zm16.83,7.48h-1.87v-3.74h1.87v3.74Z"/>
    <path class="cls-1" d="m67.33,0v14.96h14.96v-3.74h1.87v3.74h14.96V0h-31.8Zm16.83,7.48h-1.87v-3.74h1.87v3.74Z"/>
    <polygon class="cls-1" points="231.92 7.48 231.92 3.74 233.79 3.74 233.79 0 201.99 0 201.99 11.22 203.86 11.22 203.86 14.96 233.79 14.96 233.79 7.48 231.92 7.48"/>
    <polygon class="cls-1" points="33.67 0 33.67 14.96 65.46 14.96 65.46 0 56.11 0 56.11 3.74 54.24 3.74 54.24 0 44.89 0 44.89 3.74 43.02 3.74 43.02 0 33.67 0"/>
    <path class="cls-1" d="m151.49,16.83v14.96s14.96,0,14.96,0v-3.74s1.87,0,1.87,0v3.74s13.09,0,13.09,0v-3.74s1.87,0,1.87,0v-11.22s-31.79,0-31.79,0Zm16.83,7.48h-1.87v-3.74s1.87,0,1.87,0v3.74Z"/>
    <path class="cls-1" d="m50.5,16.83v14.96s14.96,0,14.96,0v-3.74s1.87,0,1.87,0v3.74s13.09,0,13.09,0v-3.74s1.87,0,1.87,0v-11.22s-31.79,0-31.79,0Zm16.83,7.48h-1.87v-3.74s1.87,0,1.87,0v3.74Z"/>
    <path class="cls-1" d="m101,0v14.96s14.96,0,14.96,0v-3.74s1.87,0,1.87,0v3.74s13.09,0,13.09,0v-3.74s1.87,0,1.87,0V0s-31.79,0-31.79,0Zm16.83,7.48h-1.87v-3.74s1.87,0,1.87,0v3.74Z"/>
    <polygon class="cls-1" points="185.16 16.83 185.16 28.05 187.03 28.05 187.03 31.79 215.08 31.79 215.08 28.05 216.95 28.05 216.95 16.83 201.99 16.83 201.99 20.57 200.12 20.57 200.12 16.83 185.16 16.83"/>
    <polygon class="cls-1" points="168.33 14.96 168.33 0 200.12 0 200.12 14.96 185.16 14.96 185.16 11.22 183.29 11.22 183.29 14.96 168.33 14.96"/>
    <path class="cls-1" d="m149.62,16.83h-31.79v14.96s31.8,0,31.8,0v-14.96Zm-14.96,11.22h-1.87v-3.74s1.87,0,1.87,0v3.74Z"/>
  </g>
</svg>