<?xml version="1.0" encoding="UTF-8"?>
<svg id="_레이어_2" data-name="레이어 2" xmlns="http://www.w3.org/2000/svg" viewBox="0 0 150 30">
  <defs>
    <style>
      .cls-1 {
        fill: none;
      }

      .cls-1, .cls-2 {
        stroke-width: 0px;
      }
    </style>
  </defs>
  <g id="_레이어_1-2" data-name="레이어 1">
    <g>
      <rect class="cls-1" width="150" height="30"/>
      <polygon class="cls-2" points="15 3.59 18.65 11.18 27 12.31 20.91 18.13 22.42 26.41 15 22.42 7.58 26.41 9.09 18.13 3 12.31 11.35 11.18 15 3.59"/>
      <polygon class="cls-2" points="45 3.59 48.65 11.18 57 12.31 50.91 18.13 52.42 26.41 45 22.42 37.58 26.41 39.09 18.13 33 12.31 41.35 11.18 45 3.59"/>
      <polygon class="cls-2" points="75 3.59 78.65 11.18 87 12.31 80.91 18.13 82.42 26.41 75 22.42 67.58 26.41 69.09 18.13 63 12.31 71.35 11.18 75 3.59"/>
      <polygon class="cls-2" points="105 3.59 108.65 11.18 117 12.31 110.91 18.13 112.42 26.41 105 22.42 97.58 26.41 99.09 18.13 93 12.31 101.35 11.18 105 3.59"/>
      <polygon class="cls-2" points="135 3.59 138.65 11.18 147 12.31 140.91 18.13 142.42 26.41 135 22.42 127.58 26.41 129.09 18.13 123 12.31 131.35 11.18 135 3.59"/>
    </g>
  </g>
</svg>