<?xml version="1.0" encoding="UTF-8"?>
<svg id="_레이어_2" data-name="레이어 2" xmlns="http://www.w3.org/2000/svg" viewBox="0 0 436.61 436.61">
  <defs>
    <style>
      .cls-1 {
        fill: none;
      }

      .cls-2 {
        fill: #040000;
      }

      .cls-3 {
        fill: #005dab;
      }

      .cls-4 {
        fill: #f5d11e;
      }

      .cls-5 {
        fill: #de2a22;
      }

      .cls-6, .cls-7 {
        fill: #1f853b;
      }

      .cls-8 {
        fill: #70321b;
      }

      .cls-7 {
        stroke: #21803b;
        stroke-miterlimit: 10;
        stroke-width: 3px;
      }
    </style>
  </defs>
  <g id="_레이어_1-2" data-name="레이어 1">
    <g>
      <path class="cls-4" d="m408.83,83.16c-11.7,35.78-17.39,67.41-17.39,96.72,0,39.25,9.33,64.79,9.42,65.03l1.21,3.24-1.82,2.92c-27.38,43.95-82,92.74-123.01,125.92-30.63,24.8-54.67,41.7-54.91,41.86l-4.02,2.82-4.02-2.82c-.24-.16-24.28-17.06-54.92-41.86-41-33.18-95.62-81.97-123-125.92l-1.83-2.92,1.21-3.24c.1-.25,9.43-25.56,9.43-65.03,0-29.31-5.69-60.94-17.39-96.72l-1.62-4.95,4.27-2.98c55.31-38.42,120.27-58.74,187.87-58.74s132.56,20.32,187.86,58.74l4.28,2.98-1.62,4.95Z"/>
      <g>
        <path class="cls-6" d="m384.44,179.89c0,41.18,9.86,67.49,9.86,67.49-46.85,75.2-176,165.73-176,165.75,0-.01-129.16-90.55-176-165.75,0,0,9.86-26.3,9.86-67.49s-10.52-76.84-17.73-98.9c52.16-36.25,115.53-57.5,183.87-57.5s131.7,21.24,183.87,57.5c-7.21,22.06-17.73,59.23-17.73,98.9Z"/>
        <path class="cls-8" d="m308.93,278.67c-1.25,10.95-4.29,24.41-10.52,40.35,0,0-37.75,33.97-80.1,63.73-42.36-29.76-80.11-63.73-80.11-63.73-19.75-50.56-7.47-76.11-7.47-76.11,55.2-9.76,87.58-38.68,87.58-38.68,0,0,32.37,28.92,87.58,38.68,0,0,5.75,11.98,3.04,35.76Z"/>
        <path class="cls-8" d="m218.31,70.19c-14.97,0-27.11,12.14-27.11,27.11,0,12.25,8.13,22.6,19.29,25.96,1.23-3.12,4.27-5.33,7.82-5.33s6.59,2.21,7.82,5.33c11.16-3.36,19.29-13.71,19.29-25.96,0-14.97-12.14-27.11-27.11-27.11Z"/>
        <circle class="cls-4" cx="218.31" cy="97.3" r="17.35"/>
        <circle class="cls-3" cx="218.31" cy="126.35" r="8.41"/>
        <g>
          <circle class="cls-4" cx="261.78" cy="117.93" r="17.8"/>
          <circle class="cls-4" cx="174.83" cy="117.93" r="17.8"/>
        </g>
        <path class="cls-3" d="m218.31,70.19c4.25,0,8.27.98,11.85,2.73,2.7-7.3,1.31-19.9,1.31-19.9-1.48-10.38-7.58-10.38-13.16-10.38h0c-5.58,0-11.68,0-13.16,10.38,0,0-1.39,12.6,1.31,19.9,3.58-1.74,7.6-2.73,11.85-2.73Z"/>
        <g>
          <path class="cls-6" d="m218.31,153.11c0,4.18,1.98,8.99,8.41,10.76,6.44,1.77,15.43-.51,16.06-5.38.63-4.88-3.42-9.81-11.65-12.22-8.23-2.41-12.83,1.39-12.83,6.84Z"/>
          <path class="cls-6" d="m218.31,153.11c0,4.18-1.98,8.99-8.41,10.76-6.44,1.77-15.43-.51-16.06-5.38-.63-4.88,3.42-9.81,11.65-12.22,8.23-2.41,12.83,1.39,12.83,6.84Z"/>
        </g>
        <path class="cls-4" d="m235.06,138.17c-3.86-3.29-8.05-4.78-11.27-5.44-1.47,1.27-3.39,2.04-5.48,2.04s-4.01-.77-5.48-2.04c-3.22.67-7.41,2.15-11.27,5.44-7.72,6.58-9.5,13.68-7.72,20.32-.63-4.88,3.42-9.81,11.65-12.22,8.23-2.41,12.83,1.39,12.83,6.84,0-5.44,4.59-9.24,12.83-6.84,8.23,2.41,12.28,7.34,11.65,12.22,1.77-6.65,0-13.74-7.72-20.32Z"/>
        <g>
          <path class="cls-6" d="m283.83,115.75c-.01-.58-.05-1.16-.12-1.72-.03-.28-.07-.55-.11-.82-.04-.3-.1-.61-.15-.91-.14-.77-.32-1.51-.55-2.24-.1-.32-.2-.64-.32-.96-.08-.24-.17-.49-.26-.72-.1-.26-.21-.51-.32-.75-.46-1.05-1-2.03-1.62-2.95-.1-.15-.2-.3-.3-.45-.01-.01-.02-.02-.03-.03-.07-.1-.14-.2-.22-.29-.07-.11-.16-.22-.24-.33-8.64-11.01-29.23-7.77-37.61,6.94-.06.1-.11.2-.17.3h-.02c-.85,1.49-1.85,2.88-2.95,4.17-1.11,1.28-2.34,2.46-3.66,3.52-.66.53-1.36,1.03-2.07,1.5-.35.23-.71.45-1.08.67-.36.21-.71.41-1.07.6-.08.04-.16.08-.24.12-.26.14-.53.27-.79.39-.12.07-.25.12-.38.18-.32.15-.65.29-.98.42-.31.13-.64.26-.96.38-.49.18-.98.34-1.48.49.07.18.13.36.19.55.12.36.22.74.28,1.13.01.04.02.08.02.13.03.16.05.31.06.47,2.01.37,4.32.88,6.93,1.57,9.46,2.52,19.35,12.68,32.13,10.59.39-.07.78-.14,1.16-.21.32-.06.63-.13.94-.2.34-.08.67-.16.99-.24.33-.09.65-.18.96-.27.62-.19,1.22-.39,1.79-.61.3-.12.59-.24.88-.36.26-.12.51-.23.76-.36.02,0,.03-.01.05-.02l.18-.09c.39-.2.77-.41,1.14-.63.07-.05.14-.09.21-.13.48-.3.94-.62,1.38-.95.01-.02.02-.02.03-.03.22-.17.44-.35.66-.54.65-.54,1.25-1.15,1.8-1.81.09-.11.19-.22.29-.34.08-.1.16-.19,1.92-2.91.11-.19.21-.39.31-.59.11-.21.22-.43.32-.65l.78-1.84c.13-.35.26-.7.37-1.05.24-.7.43-1.41.59-2.11.08-.35.15-.7.22-1.05.31-1.67.42-3.34.36-4.96Zm-22.04,19.98c-9.83,0-17.8-7.96-17.8-17.79s7.97-17.8,17.8-17.8,17.8,7.96,17.8,17.8-7.97,17.79-17.8,17.79Z"/>
          <path class="cls-6" d="m209.01,122.77c-.32-.12-.65-.25-.96-.38-.33-.13-.66-.27-.98-.42-.13-.06-.26-.11-.38-.18-.26-.12-.53-.25-.79-.39-.08-.04-.16-.08-.24-.12-.36-.19-.71-.39-1.07-.6-.37-.22-.73-.44-1.08-.67-.71-.47-1.41-.97-2.07-1.5-1.32-1.06-2.55-2.24-3.66-3.52-1.1-1.29-2.1-2.68-2.95-4.16h-.02c-.06-.11-.11-.21-.17-.31-8.38-14.71-28.97-17.95-37.61-6.94-.09.11-.17.21-.24.33-.08.09-.15.19-.22.29,0,.01-.02.02-.03.03-.1.15-.2.3-.3.45-.62.92-1.16,1.9-1.62,2.95-.11.24-.22.49-.32.75-.09.23-.18.48-.26.72-.12.32-.22.64-.32.96-.23.73-.41,1.47-.55,2.24-.05.3-.11.61-.15.91-.04.27-.08.54-.11.82-.06.57-.1,1.14-.12,1.72-.06,1.62.05,3.29.36,4.96.07.35.14.7.22,1.05.16.7.35,1.41.59,2.11.11.35.24.7.37,1.05l.78,1.84c.1.22.21.44.32.65.1.2.2.4.31.59,1.76,2.72,1.84,2.81,1.92,2.91.1.12.2.23.29.34.55.66,1.15,1.27,1.8,1.81.22.19.44.37.66.54.01.01.02.01.03.03.44.33.9.65,1.38.95.07.04.14.08.21.13.37.22.75.43,1.14.63.08.03.15.07.23.11.25.13.5.24.76.36.29.12.58.24.88.36.57.22,1.17.42,1.79.61.31.09.63.18.96.27.32.08.65.16.99.24.31.07.62.14.94.2.38.07.77.14,1.16.21,12.78,2.09,22.67-8.07,32.13-10.59,2.61-.69,4.92-1.2,6.93-1.57.01-.1.02-.2.04-.29,0-.06.01-.12.02-.18.02-.14.04-.28.07-.41.07-.33.15-.65.26-.96.05-.15.1-.3.16-.44-.5-.15-.99-.31-1.48-.49Zm-34.18,12.96c-9.83,0-17.8-7.96-17.8-17.79s7.97-17.8,17.8-17.8,17.8,7.96,17.8,17.8-7.97,17.79-17.8,17.79Z"/>
        </g>
        <path class="cls-2" d="m240.8,152.06c1.1,1.37,1.76,2.86,1.97,4.37-.21-1.51-.87-3-1.97-4.37Z"/>
        <path class="cls-5" d="m342.43,115.57s-17.27,7.57-30,4.95c-12.56-2.58-26.63,1.97-33.47,10.39-.09.12-.19.23-.29.34,0,0,0,0,0,0-2.98,3.49-7.11,5.49-12.93,6.45-12.77,2.1-22.67-8.07-32.13-10.59-2.6-.69-4.92-1.2-6.92-1.57.03.27.04.54.04.81,0,2.55-1.14,4.83-2.93,6.37h0c3.22.67,7.41,2.15,11.27,5.44,7.72,6.58,9.5,13.68,7.72,20.32h0c-.63,4.88-9.62,7.15-16.06,5.38-6.44-1.77-8.41-6.59-8.41-10.76,0,4.18-1.98,8.99-8.41,10.76-6.44,1.77-15.43-.51-16.06-5.38h0c-1.77-6.65,0-13.74,7.72-20.32,3.86-3.29,8.05-4.78,11.27-5.44h0c-1.79-1.54-2.93-3.82-2.93-6.37,0-.27.02-.55.04-.81-2.01.38-4.32.88-6.92,1.57-9.46,2.52-19.36,12.68-32.13,10.59-5.82-.95-9.95-2.95-12.93-6.45,0,0,0,0,0,0-.1-.11-.2-.22-.29-.34-6.84-8.41-20.91-12.97-33.47-10.39-12.73,2.62-30-4.95-30-4.95,0,0,25.99,39.66,24.07,75.42,0,0,6.45-4.36,6.63-14.65,0,0,12.03,23.68,5.84,52.05,0,0,23.46-.24,43.17-30.94,0,0,1.05,10.29-2.79,18.49,0,0,14.86-3.42,25.64-14.2,8.71-8.71,13.46-12.49,21.56-12.49s12.84,3.78,21.56,12.49c10.78,10.78,25.64,14.2,25.64,14.2-3.84-8.2-2.79-18.49-2.79-18.49,19.71,30.7,43.17,30.94,43.17,30.94-6.19-28.36,5.84-52.05,5.84-52.05.17,10.29,6.63,14.65,6.63,14.65-1.92-35.76,24.07-75.42,24.07-75.42Z"/>
        <path class="cls-2" d="m193.84,156.44c.21-1.51.87-3,1.97-4.37-1.1,1.37-1.76,2.86-1.97,4.37Z"/>
        <path class="cls-3" d="m302.96,132.72c-9.72-1.29-19.6,7.4-33.4,11.79-9.54,3.03-21.09,3.3-27.32,3.17,1.41,3.63,1.48,7.28.54,10.81h0c-.63,4.88-9.62,7.15-16.06,5.38-6.44-1.77-8.41-6.59-8.41-10.76,0,4.18-1.98,8.99-8.41,10.76-6.44,1.77-15.43-.51-16.06-5.38h0c-.94-3.52-.87-7.17.54-10.81-6.23.13-17.79-.14-27.32-3.17-13.8-4.39-23.68-13.08-33.4-11.79-9.72,1.29-12.07,8.3-9.88,14.99,2.2,6.68,9.72,20.64,13.17,43.22,3.45,22.58,18.19,12.86,24.77,6.43,6.59-6.43,23.95-16.93,56.58-16.93s50,10.51,56.58,16.93c6.59,6.43,21.32,16.15,24.77-6.43,3.45-22.58,10.98-36.53,13.17-43.22,2.2-6.68-.16-13.7-9.88-14.99Z"/>
        <g>
          <path class="cls-4" d="m228.86,180.81c5.81.44,11.05,1.22,15.72,2.24,4.82-12.9-1.18-19.94-1.18-19.94-4.33,8.88-10.51,14.92-14.55,17.69Z"/>
          <path class="cls-4" d="m271.08,176.07c5.03,9.28,3.3,15.96,1.62,19.34.83.68,1.56,1.33,2.19,1.94,3.68,3.59,9.91,8.21,15.29,7.65-2.56-23.86-19.1-28.93-19.1-28.93Z"/>
          <path class="cls-4" d="m253.22,170.54s14.43-4.03,13.19-25.14c-3.97.99-8.12,1.58-12.01,1.91,1.68,4.7,3.17,12.98-1.18,23.23Z"/>
          <path class="cls-4" d="m295.54,149.88c12.29-1.91,14.62-9.18,14.68-14.26-1.7-1.44-4.08-2.48-7.26-2.9-1.88-.25-3.76-.12-5.68.27,4.12,8.82-1.74,16.89-1.74,16.89Z"/>
          <path class="cls-4" d="m229.15,171.87c.04-1.1-.84-2.02-1.95-2.02h-6.95c-1.08,0-1.95.87-1.95,1.95v8.61c3.45,0,6.73.12,9.84.34.67-2.38.91-6.69,1-8.89Z"/>
          <path class="cls-4" d="m300.13,188.17c1.2-6.93,2.75-13,4.39-18.25-3.57-.69-9.18-3.18-16.43-10.91,0,0-2.96,17.19,12.05,29.15Z"/>
          <path class="cls-4" d="m207.75,180.81c-5.81.44-11.05,1.22-15.72,2.24-4.82-12.9,1.18-19.94,1.18-19.94,4.33,8.88,10.51,14.92,14.55,17.69Z"/>
          <path class="cls-4" d="m165.53,176.07c-5.03,9.28-3.3,15.96-1.62,19.34-.83.68-1.56,1.33-2.19,1.94-3.68,3.59-9.91,8.21-15.29,7.65,2.56-23.86,19.1-28.93,19.1-28.93Z"/>
          <path class="cls-4" d="m183.4,170.54s-14.43-4.03-13.19-25.14c3.97.99,8.12,1.58,12.01,1.91-1.68,4.7-3.17,12.98,1.18,23.23Z"/>
          <path class="cls-4" d="m141.07,149.88c-12.29-1.91-14.62-9.18-14.68-14.26,1.7-1.44,4.08-2.48,7.26-2.9,1.88-.25,3.76-.12,5.68.27-4.12,8.82,1.74,16.89,1.74,16.89Z"/>
          <path class="cls-4" d="m207.46,171.87c-.04-1.1.84-2.02,1.95-2.02h6.95c1.08,0,1.95.87,1.95,1.95v8.61c-3.45,0-6.73.12-9.84.34-.67-2.38-.91-6.69-1-8.89Z"/>
          <path class="cls-4" d="m136.49,188.17c-1.2-6.93-2.75-13-4.39-18.25,3.57-.69,9.18-3.18,16.43-10.91,0,0,2.96,17.19-12.05,29.15Z"/>
        </g>
        <polygon class="cls-2" points="278.66 131.25 278.66 131.25 278.66 131.25 278.66 131.25"/>
        <path class="cls-5" d="m336.83,88.35c10.71,1.01,19.61,4.39,35.5-2.15-5.75.45-14.31.11-24.91-5.3-10.59-5.41-19.35-8.8-28.06-6.99-5.54,1.15-10.15,3.71-12.92,5.55-1.42,3.61-4.09,7.13-8.8,10.44,2.89-.2,6.72-.23,10.23.51,3.52.74,6.61,1.94,9.96,2.57.04-.03,8.32-5.64,19-4.63Z"/>
        <path class="cls-3" d="m336.83,88.35c-10.68-1.01-18.97,4.6-19,4.63,3.07.58,6.36.67,10.41-.52,0,0-1.61,18.08-14.38,28.31,4.07.59,8.5.25,12.64-.48,7.85-15.16,13.82-14.38,27.69-18.76,15.21-4.8,18.15-15.33,18.15-15.33-15.89,6.54-24.79,3.16-35.5,2.15Z"/>
        <polygon class="cls-2" points="157.95 131.25 157.95 131.25 157.95 131.25 157.95 131.25"/>
        <path class="cls-5" d="m130.18,79.46c-2.78-1.84-7.38-4.39-12.92-5.55-8.72-1.82-17.47,1.58-28.06,6.99-10.59,5.41-19.16,5.75-24.91,5.3,15.89,6.54,24.79,3.16,35.5,2.15,10.68-1.01,18.97,4.6,19,4.63,3.35-.63,6.44-1.82,9.96-2.57,3.51-.74,7.34-.71,10.23-.51-4.71-3.31-7.38-6.82-8.8-10.44Z"/>
        <path class="cls-3" d="m99.79,88.35c-10.71,1.01-19.61,4.39-35.5-2.15,0,0,2.93,10.52,18.15,15.33,13.87,4.38,19.84,3.6,27.69,18.76,4.13.73,8.57,1.07,12.64.48-12.78-10.23-14.38-28.31-14.38-28.31,4.05,1.19,7.34,1.1,10.41.52-.04-.03-8.32-5.64-19-4.63Z"/>
        <g>
          <path class="cls-4" d="m198.79,47.44c4.65,0,7.54,1.03,7.54,1.03h0c-.52,1.24-.92,2.73-1.18,4.55,0,0-1.39,12.6,1.31,19.9,0,0,0,0,0,0-4.08,1.99-7.57,4.97-10.19,8.63-2.66-3.05-5.89-7.64-7.54-18-1.8-11.32,5.41-16.11,10.07-16.11Z"/>
          <path class="cls-4" d="m237.82,47.44c-4.65,0-7.54,1.03-7.54,1.03h0c.52,1.24.92,2.73,1.18,4.55,0,0,1.39,12.6-1.31,19.9,0,0,0,0,0,0,4.08,1.99,7.57,4.97,10.19,8.63,2.66-3.05,5.89-7.64,7.54-18,1.8-11.32-5.41-16.11-10.07-16.11Z"/>
        </g>
        <path class="cls-3" d="m248.15,60.22s0,0,0,0c13.12,1.29,17.71,7.08,23.73,11.77,13.53-3.54,16.42-14.78,16.42-14.78-10.99,3.15-16.4-1.29-20.28-4.28-3.88-2.99-7.67-6.09-13.88-6.05-4.03.03-7.14,2.07-9.21,4.02,1.87,2.08,3.23,5.14,3.21,9.32Z"/>
        <path class="cls-3" d="m188.46,60.22s0,0,0,0c-13.12,1.29-17.71,7.08-23.73,11.77-13.53-3.54-16.42-14.78-16.42-14.78,10.99,3.15,16.4-1.29,20.28-4.28,3.88-2.99,7.67-6.09,13.88-6.05,4.03.03,7.14,2.07,9.21,4.02-1.87,2.08-3.23,5.14-3.21,9.32Z"/>
        <path class="cls-7" d="m259.69,302.6c0,.78.64,1.42,1.42,1.42s1.42-.64,1.42-1.42c0-4.09-2.3-6.53-6.14-6.53-2.37,0-4.16,1.54-5.34,3.32-1.14-1.81-2.95-2.64-4.59-2.77-2.99-.23-6.38,1.64-6.92,5.16-.12.77.41,1.5,1.19,1.62.77.12,1.5-.41,1.62-1.19.29-1.87,2.24-2.89,3.9-2.77,1.98.15,3.12,1.78,3.12,4.46,0,4.26-2.59,8.94-6.16,11.11-1.58.96-4,1.83-6.57.5-2.57-1.33-3.7-4.55-3.35-9.57.38-5.35,5.14-9.91,5.18-9.96,0,0,0,0,0-.01,4.32-4.11,10.69-8.36,19.79-10.76.43-.11.78-.2,1.03-.27,0,0,0,0,0,0,2.39-.59,4.69-1.41,6.9-2.41-1.27,2.42-1.65,4.89-1.04,7.24.64,2.48,2.02,3.55,3.07,4.01.67.29,1.35.41,1.99.41.99,0,1.9-.28,2.57-.63,1.21-.65,2.07-1.75,2.34-3.01.26-1.19-.03-2.41-.82-3.44-.48-.62-1.37-.74-1.99-.26-.62.48-.74,1.37-.26,1.99.28.36.38.74.3,1.11-.1.44-.43.86-.9,1.11-.51.27-1.38.43-2.08.12-.68-.3-1.17-1.01-1.46-2.12-.9-3.48,1.38-7.5,6.25-11.07,9.11-6.34,15.4-14.79,16.68-18.78,0,0,0-.01,0-.02,0-.02.01-.04.02-.05,0-.03.01-.06.02-.09.01-.05.02-.1.03-.15,0-.04,0-.09,0-.13,0-.05,0-.09,0-.14,0-.05-.01-.09-.02-.14,0-.04-.01-.09-.03-.13-.01-.04-.03-.09-.04-.13-.02-.04-.03-.09-.05-.13-.02-.04-.04-.08-.07-.12-.02-.04-.05-.08-.08-.12-.03-.04-.06-.07-.09-.11-.03-.03-.06-.07-.09-.1-.04-.03-.08-.06-.12-.09-.03-.02-.05-.04-.07-.06,0,0-.02,0-.03-.01-.04-.02-.09-.04-.13-.06-.05-.02-.09-.04-.14-.06-.01,0-.02,0-.03-.01-.03,0-.06-.01-.09-.02-.05-.01-.1-.02-.15-.03-.05,0-.09,0-.14,0-.04,0-.09,0-.13,0-.05,0-.1.01-.14.02-.04,0-.08.01-.13.02-.05.01-.09.03-.13.04-.04.02-.08.03-.12.05-.04.02-.08.04-.12.07-.04.02-.08.05-.12.08-.04.03-.07.06-.1.09-.03.03-.07.06-.1.09-.03.04-.06.08-.09.12-.02.03-.04.05-.06.07-2.49,4.02-7.79,5.27-11.81,2.78-4.02-2.49-5.27-7.79-2.78-11.81,1.6-2.59,4.36-4.14,7.44-4.07.75.03,1.43-.61,1.44-1.4.01-.78-.61-1.43-1.4-1.44-.06,0-.11,0-.17,0-3.94,0-7.65,2.06-9.72,5.41-3.31,5.36-1.65,12.41,3.7,15.72,1.87,1.16,3.94,1.71,5.99,1.71,1.23,0,2.45-.22,3.62-.61-2.73,3.53-6.81,7.69-11.79,11.2-.02.02-.05.03-.07.04-.06.04-.11.08-.17.13-4.11,2.87-8.82,5.28-13.87,6.54-.65,0-3.98-.07-6.25-2.34-1.7-1.69-2.47-4.27-2.3-7.67.29-5.71,2.91-7.75,5.06-8.46,2.69-.88,5.54.05,6.4,1.1,1.19,1.46,1.32,3.84.28,5.2-1,1.31-2.66.93-3.88.39-.72-.32-1.56,0-1.87.72-.32.72,0,1.56.72,1.87,2.95,1.32,5.68.85,7.29-1.26.1-.13.17-.28.26-.42.66.52,1.48.88,2.41,1.02.29.05.59.07.9.07,2.31,0,4.82-1.33,5.73-4.17.24-.75-.17-1.55-.92-1.79-.75-.24-1.55.17-1.79.92-.54,1.69-2.16,2.36-3.49,2.16-.55-.09-1.83-.46-1.83-2.05,0,0,0,0,0-.01-.05-1.59-.59-3.19-1.62-4.44-1.62-1.98-5.61-3.28-9.49-2.01-2.45.8-6.62,3.3-7.02,11.01-.22,4.25.84,7.56,3.15,9.85.6.6,1.25,1.08,1.91,1.47-4.74.45-11.18.12-16.25-3.63-5.05-3.74-7.7-10.21-7.89-19.23-.33-15.93,4.32-22.23,8.28-24.72,3.46-2.17,7.86-2.28,11.77-.3,3.71,1.89,4.33,6.71,3.73,10.26-.68,4.01-3.13,8.3-7.08,8.84-2.57.35-4.66-.06-6.03-1.19-1.06-.87-1.64-2.14-1.73-3.75-.09-1.57.44-2.74,1.44-3.19.64-.29,1.37-.23,1.78.16.56.55,1.46.53,2.01-.03.55-.56.53-1.46-.03-2.01-1.24-1.2-3.22-1.49-4.93-.71-2.09.95-3.25,3.17-3.1,5.93.13,2.4,1.09,4.4,2.76,5.78.26.22.54.42.84.6-.68.45-1.28.99-1.74,1.62-1.1,1.53-1.38,3.39-.77,5.25.46,1.39,1.34,2.44,2.56,3.05.96.48,1.99.63,2.93.63,1.5,0,2.73-.39,2.94-.46.74-.25,1.14-1.05.89-1.79-.25-.74-1.05-1.14-1.79-.9-.62.2-2.48.6-3.7-.02-.55-.28-.9-.72-1.13-1.4-.32-.99-.2-1.92.37-2.7.89-1.22,2.68-1.93,4.91-1.93.04,0,.07,0,.1-.01.59-.01,1.18-.05,1.81-.13,5.38-.74,8.64-6.15,9.49-11.18,1-5.93-1.06-11.14-5.25-13.27-4.81-2.45-10.25-2.29-14.57.42-4.58,2.87-9.96,9.92-9.61,27.18.19,9,2.7,15.75,7.46,20.13-3.67.5-6.33,2.76-7.34,4.97-.33.71-.02,1.56.7,1.88.19.09.39.13.59.13.54,0,1.05-.31,1.29-.83.84-1.83,4.42-4.88,10.1-2.65,3.04,1.36,6.25,1.95,9.25,2.11-4.53,2.28-8.11,4.98-10.9,7.64,0,0,0,0,0,0-2.25,2.05-5.62,5.16-7.8,4.93-1.74-.18-2.11-1.96-2.11-3.42,0-.78-.64-1.42-1.42-1.42s-1.42.64-1.42,1.42c0,4.25,2.4,6.01,4.65,6.25.58.06,1.17,0,1.76-.13-.82,1.28-1.4,2.35-1.76,3.1-4.94,10.03-4.9,18.97-3.99,24.7.57,3.6,2.38,5.85,5.24,6.51.41.1.83.14,1.23.14,2.49,0,4.75-1.71,5.33-4.24.68-2.94-1.16-5.89-4.1-6.57-.76-.18-1.53.3-1.7,1.06-.18.76.3,1.53,1.06,1.7,1.42.33,2.3,1.75,1.97,3.16-.16.69-.57,1.27-1.17,1.64-.6.37-1.3.49-1.99.33-1.07-.25-2.56-.95-3.07-4.19-.8-5.09-.86-12.91,3.16-21.77-.11,5.47,1.52,9.16,4.91,10.92,1.29.67,2.65,1,4.04,1,1.76,0,3.57-.53,5.31-1.59,4.43-2.69,7.53-8.26,7.53-13.53,0-.86,1.68-5,4.19-5,1.54,0,3.31.42,3.31,3.69Z"/>
        <path class="cls-7" d="m176.92,302.6c0,.78-.64,1.42-1.42,1.42s-1.42-.64-1.42-1.42c0-4.09,2.3-6.53,6.14-6.53,2.37,0,4.16,1.54,5.34,3.32,1.14-1.81,2.95-2.64,4.59-2.77,2.99-.23,6.38,1.64,6.92,5.16.12.77-.41,1.5-1.19,1.62-.77.12-1.5-.41-1.62-1.19-.29-1.87-2.24-2.89-3.9-2.77-1.98.15-3.12,1.78-3.12,4.46,0,4.26,2.59,8.94,6.16,11.11,1.58.96,4,1.83,6.57.5,2.57-1.33,3.7-4.55,3.35-9.57-.38-5.35-5.14-9.91-5.18-9.96,0,0,0,0,0-.01-4.32-4.11-10.69-8.36-19.79-10.76-.43-.11-.78-.2-1.03-.27,0,0,0,0,0,0-2.39-.59-4.69-1.41-6.9-2.41,1.27,2.42,1.65,4.89,1.04,7.24-.64,2.48-2.02,3.55-3.07,4.01-.67.29-1.35.41-1.99.41-.99,0-1.9-.28-2.57-.63-1.21-.65-2.07-1.75-2.34-3.01-.26-1.19.03-2.41.82-3.44.48-.62,1.37-.74,1.99-.26.62.48.74,1.37.26,1.99-.28.36-.38.74-.3,1.11.1.44.43.86.9,1.11.51.27,1.38.43,2.08.12.68-.3,1.17-1.01,1.46-2.12.9-3.48-1.38-7.5-6.25-11.07-9.11-6.34-15.4-14.79-16.68-18.78,0,0,0-.01,0-.02,0-.02-.01-.04-.02-.05,0-.03-.01-.06-.02-.09-.01-.05-.02-.1-.03-.15,0-.04,0-.09,0-.13,0-.05,0-.09,0-.14,0-.05.01-.09.02-.14,0-.04.01-.09.03-.13.01-.04.03-.09.04-.13.02-.04.03-.09.05-.13.02-.04.04-.08.07-.12.02-.04.05-.08.08-.12.03-.04.06-.07.09-.11.03-.03.06-.07.09-.1.04-.03.08-.06.12-.09.03-.02.05-.04.07-.06,0,0,.02,0,.03-.01.04-.02.09-.04.13-.06.05-.02.09-.04.14-.06.01,0,.02,0,.03-.01.03,0,.06-.01.09-.02.05-.01.1-.02.15-.03.05,0,.09,0,.14,0,.04,0,.09,0,.13,0,.05,0,.1.01.14.02.04,0,.08.01.13.02.05.01.09.03.13.04.04.02.08.03.12.05.04.02.08.04.12.07.04.02.08.05.12.08.04.03.07.06.1.09.03.03.07.06.1.09.03.04.06.08.09.12.02.03.04.05.06.07,2.49,4.02,7.79,5.27,11.81,2.78,4.02-2.49,5.27-7.79,2.78-11.81-1.6-2.59-4.36-4.14-7.44-4.07-.75.03-1.43-.61-1.44-1.4-.01-.78.61-1.43,1.4-1.44.06,0,.11,0,.17,0,3.94,0,7.65,2.06,9.72,5.41,3.31,5.36,1.65,12.41-3.7,15.72-1.87,1.16-3.94,1.71-5.99,1.71-1.23,0-2.45-.22-3.62-.61,2.73,3.53,6.81,7.69,11.79,11.2.02.02.05.03.07.04.06.04.11.08.17.13,4.11,2.87,8.82,5.28,13.87,6.54.65,0,3.98-.07,6.25-2.34,1.7-1.69,2.47-4.27,2.3-7.67-.29-5.71-2.91-7.75-5.06-8.46-2.69-.88-5.54.05-6.4,1.1-1.19,1.46-1.32,3.84-.28,5.2,1,1.31,2.66.93,3.88.39.72-.32,1.56,0,1.87.72.32.72,0,1.56-.72,1.87-2.95,1.32-5.68.85-7.29-1.26-.1-.13-.17-.28-.26-.42-.66.52-1.48.88-2.41,1.02-.29.05-.59.07-.9.07-2.31,0-4.82-1.33-5.73-4.17-.24-.75.17-1.55.92-1.79.75-.24,1.55.17,1.79.92.54,1.69,2.16,2.36,3.49,2.16.55-.09,1.83-.46,1.83-2.05,0,0,0,0,0-.01.05-1.59.59-3.19,1.62-4.44,1.62-1.98,5.61-3.28,9.49-2.01,2.45.8,6.62,3.3,7.02,11.01.22,4.25-.84,7.56-3.15,9.85-.6.6-1.25,1.08-1.91,1.47,4.74.45,11.18.12,16.25-3.63,5.05-3.74,7.7-10.21,7.89-19.23.33-15.93-4.32-22.23-8.28-24.72-3.46-2.17-7.86-2.28-11.77-.3-3.71,1.89-4.33,6.71-3.73,10.26.68,4.01,3.13,8.3,7.08,8.84,2.57.35,4.66-.06,6.03-1.19,1.06-.87,1.64-2.14,1.73-3.75.09-1.57-.44-2.74-1.44-3.19-.64-.29-1.37-.23-1.78.16-.56.55-1.46.53-2.01-.03-.55-.56-.53-1.46.03-2.01,1.24-1.2,3.22-1.49,4.93-.71,2.09.95,3.25,3.17,3.1,5.93-.13,2.4-1.09,4.4-2.76,5.78-.26.22-.54.42-.84.6.68.45,1.28.99,1.74,1.62,1.1,1.53,1.38,3.39.77,5.25-.46,1.39-1.34,2.44-2.56,3.05-.96.48-1.99.63-2.93.63-1.5,0-2.73-.39-2.94-.46-.74-.25-1.14-1.05-.89-1.79.25-.74,1.05-1.14,1.79-.9.62.2,2.48.6,3.7-.02.55-.28.9-.72,1.13-1.4.32-.99.2-1.92-.37-2.7-.89-1.22-2.68-1.93-4.91-1.93-.04,0-.07,0-.1-.01-.59-.01-1.18-.05-1.81-.13-5.38-.74-8.64-6.15-9.49-11.18-1-5.93,1.06-11.14,5.25-13.27,4.81-2.45,10.25-2.29,14.57.42,4.58,2.87,9.96,9.92,9.61,27.18-.19,9-2.7,15.75-7.46,20.13,3.67.5,6.33,2.76,7.34,4.97.33.71.02,1.56-.7,1.88-.19.09-.39.13-.59.13-.54,0-1.05-.31-1.29-.83-.84-1.83-4.42-4.88-10.1-2.65-3.04,1.36-6.25,1.95-9.25,2.11,4.53,2.28,8.11,4.98,10.9,7.64,0,0,0,0,0,0,2.25,2.05,5.62,5.16,7.8,4.93,1.74-.18,2.11-1.96,2.11-3.42,0-.78.64-1.42,1.42-1.42s1.42.64,1.42,1.42c0,4.25-2.4,6.01-4.65,6.25-.58.06-1.17,0-1.76-.13.82,1.28,1.4,2.35,1.76,3.1,4.94,10.03,4.9,18.97,3.99,24.7-.57,3.6-2.38,5.85-5.24,6.51-.41.1-.83.14-1.23.14-2.49,0-4.75-1.71-5.33-4.24-.68-2.94,1.16-5.89,4.1-6.57.76-.18,1.53.3,1.7,1.06.18.76-.3,1.53-1.06,1.7-1.42.33-2.3,1.75-1.97,3.16.16.69.57,1.27,1.17,1.64.6.37,1.3.49,1.99.33,1.07-.25,2.56-.95,3.07-4.19.8-5.09.86-12.91-3.16-21.77.11,5.47-1.52,9.16-4.91,10.92-1.29.67-2.65,1-4.04,1-1.76,0-3.57-.53-5.31-1.59-4.43-2.69-7.53-8.26-7.53-13.53,0-.86-1.68-5-4.19-5-1.54,0-3.31.42-3.31,3.69Z"/>
        <path class="cls-5" d="m169.65,85.52c15.28.08,21.61,13.68,21.61,13.68h0c-.04-.63-.07-1.26-.07-1.9,0-5.88,1.88-11.32,5.06-15.76-2.66-3.05-5.88-7.64-7.53-18-.19-1.19-.26-2.28-.26-3.33-19.52,1.92-20.15,13.79-34.72,17.2-19.57,4.58-24.9-8.58-24.9-8.58,5.34,21.64,25.54,16.6,40.81,16.68Z"/>
        <path class="cls-3" d="m191.26,99.2s-6.34-13.6-21.61-13.68c-15.28-.08-35.47,4.96-40.81-16.68-.55,8.16,1.24,16.32,13.83,23.38,8.09,4.53,12.06,9.24,13.87,12.02.16-.22.32-.45.48-.66,8.7-11.09,29.51-7.72,37.77,7.24h.03c-2-3.46-3.27-7.4-3.57-11.62h0Z"/>
        <path class="cls-8" d="m152.78,115.75h0c.16-4.63,1.71-8.94,4.24-12.17-.17.21-.32.44-.48.66-1.81-2.78-5.78-7.49-13.87-12.02-1.35-.76-2.58-1.53-3.69-2.32-2.89-.2-6.72-.23-10.23.51-6.76,1.42-11.92,4.54-20.37,2.05,8.25,6.63,16.88,9.63,28.86,12.79,11.98,3.17,15.53,10.49,15.53,10.49Z"/>
        <path class="cls-4" d="m152.79,115.75h0s-3.55-7.33-15.53-10.5c-11.98-3.17-20.61-6.17-28.86-12.79,0,0,1.61,18.08,14.38,28.31.48-.07.96-.15,1.43-.24,12.56-2.58,26.63,1.97,33.47,10.39,0,0,0,0,0,0-1.34-1.66-2.43-3.64-3.33-5.99-1.17-3.06-1.64-6.18-1.54-9.17Z"/>
        <path class="cls-5" d="m266.96,85.52c-15.28.08-21.61,13.68-21.61,13.68h0c.04-.63.07-1.26.07-1.9,0-5.88-1.88-11.32-5.06-15.76,2.66-3.05,5.88-7.64,7.53-18,.19-1.19.26-2.28.26-3.33,19.52,1.92,20.15,13.79,34.72,17.2,19.57,4.58,24.9-8.58,24.9-8.58-5.34,21.64-25.54,16.6-40.81,16.68Z"/>
        <path class="cls-3" d="m245.35,99.2s6.34-13.6,21.61-13.68c15.28-.08,35.47,4.96,40.81-16.68.55,8.16-1.24,16.32-13.83,23.38-8.09,4.53-12.06,9.24-13.87,12.02-.16-.22-.32-.45-.48-.66-8.7-11.09-29.51-7.72-37.77,7.24h-.03c2-3.46,3.27-7.4,3.57-11.62h0Z"/>
        <path class="cls-8" d="m283.83,115.75h0c-.16-4.63-1.71-8.94-4.24-12.17.17.21.32.44.48.66,1.81-2.78,5.78-7.49,13.87-12.02,1.35-.76,2.58-1.53,3.69-2.32,2.89-.2,6.72-.23,10.23.51,6.76,1.42,11.92,4.54,20.37,2.05-8.25,6.63-16.88,9.63-28.86,12.79-11.98,3.17-15.53,10.49-15.53,10.49Z"/>
        <path class="cls-4" d="m283.83,115.75h0s3.55-7.33,15.53-10.5c11.98-3.17,20.61-6.17,28.86-12.79,0,0-1.61,18.08-14.38,28.31-.48-.07-.96-.15-1.43-.24-12.56-2.58-26.63,1.97-33.47,10.39,0,0,0,0,0,0,1.34-1.66,2.43-3.64,3.33-5.99,1.17-3.06,1.64-6.18,1.54-9.17Z"/>
        <path class="cls-4" d="m239.3,336.99c-10.15,6.39-20.99,16.01-20.99,25.63,0-9.62-10.84-19.24-20.99-25.63-10.15-6.39-61.36-40.21-69.63-58.32,1.25,10.95,4.29,24.41,10.52,40.35,0,0,37.75,33.97,80.1,63.73,42.35-29.76,80.1-63.73,80.1-63.73,6.23-15.94,9.27-29.4,10.52-40.35-8.27,18.11-59.48,51.93-69.63,58.32Z"/>
        <path class="cls-3" d="m309.89,309.59s7.9-20.31,8.77-45.01c1.09-31.03-6.73-48.74,9.35-75.79,0,0-.96,10.58,2.86,49.24,4.08,41.29-20.98,71.56-20.98,71.56Z"/>
        <path class="cls-4" d="m309.89,309.59s24.13-32.91,20.98-71.56c-2.11-25.85-6.76-46.27,15.22-86.02,0,0-3.01,22.86,4.32,71.49,7.86,52.18-40.52,86.1-40.52,86.1Z"/>
        <path class="cls-5" d="m309.89,309.59s46.74-37.08,40.52-86.1c-4.58-36.08-7.79-87.06,28.29-120.79,0,0-17.66,53.32-7.71,120.44,8.05,54.27-61.1,86.45-61.1,86.45Z"/>
        <path class="cls-8" d="m309.89,309.59s4.01-11.09,3.18-21.02c0,0,4.47,5.51,3.47,12.13,0,0,4.74-1.38,11.3-.22,0,0-6.17,4.3-17.96,9.11Z"/>
        <path class="cls-3" d="m126.73,309.59s-7.9-20.31-8.77-45.01c-1.09-31.03,6.73-48.74-9.35-75.79,0,0,.96,10.58-2.86,49.24-4.08,41.29,20.98,71.56,20.98,71.56Z"/>
        <path class="cls-4" d="m126.73,309.59s-24.13-32.91-20.98-71.56c2.11-25.85,6.76-46.27-15.22-86.02,0,0,3.01,22.86-4.32,71.49-7.86,52.18,40.52,86.1,40.52,86.1Z"/>
        <path class="cls-5" d="m126.73,309.59s-46.74-37.08-40.52-86.1c4.58-36.08,7.79-87.06-28.29-120.79,0,0,17.66,53.32,7.71,120.44-8.05,54.27,61.1,86.45,61.1,86.45Z"/>
        <path class="cls-8" d="m126.73,309.59s-4.01-11.09-3.18-21.02c0,0-4.47,5.51-3.47,12.13,0,0-4.74-1.38-11.3-.22,0,0,6.17,4.3,17.96,9.11Z"/>
      </g>
      <rect class="cls-1" width="436.61" height="436.61"/>
    </g>
  </g>
</svg>