<?xml version="1.0" encoding="utf-8"?>
<!-- Generator: Adobe Illustrator 28.0.0, SVG Export Plug-In . SVG Version: 6.00 Build 0)  -->
<svg version="1.1" id="_레이어_2" xmlns="http://www.w3.org/2000/svg" xmlns:xlink="http://www.w3.org/1999/xlink" x="0px"
	 y="0px" viewBox="0 0 219.1 219.1" style="enable-background:new 0 0 219.1 219.1;" xml:space="preserve">
<style type="text/css">
	.st0{fill:none;}
	.st1{fill:#070001;}
	.st2{fill:#D93924;}
</style>
<rect y="0" class="st0" width="219.1" height="219.1"/>
<path class="st1" d="M109.5,11.8c34.3,0,66.1,10.7,92.2,28.8c-3.6,11.1-8.9,29.7-8.9,49.6s4.9,33.9,4.9,33.9
	c-13.4,21.6-40.3,45.6-60.9,62.3c-15.4,12.5-27.4,20.9-27.4,20.9s-11.9-8.4-27.4-20.9c-20.6-16.7-47.5-40.7-60.9-62.3
	c0,0,5-13.2,5-33.9s-5.3-38.5-8.9-49.6C43.4,22.4,75.2,11.8,109.5,11.8 M109.5,8.3C75.6,8.3,43,18.5,15.3,37.8l-2.1,1.5l0.8,2.5
	c5.9,18,8.7,33.8,8.7,48.5c0,19.8-4.7,32.5-4.7,32.6l-0.6,1.6l0.9,1.5c13.7,22,41.1,46.5,61.7,63.2c15.4,12.4,27.4,20.9,27.5,21
	l2,1.4l2-1.4c0.1-0.1,12.2-8.6,27.6-21c20.6-16.6,48-41.1,61.7-63.2l0.9-1.5l-0.6-1.6c-0.1-0.1-4.7-12.9-4.7-32.6
	c0-14.7,2.9-30.6,8.7-48.5l0.8-2.5l-2.1-1.5C176,18.5,143.4,8.3,109.5,8.3L109.5,8.3L109.5,8.3z"/>
<g>
	<g>
		<path class="st2" d="M153.3,122.1c-25.9-4.6-42-17.8-43.8-19.3c-1.8,1.5-17.9,14.7-43.8,19.3c-0.4,0.9-2.7,6.8-1.4,17.7
			c3.9,8.3,26.4,23.8,34.8,29.1c2.8,1.8,9.1,6.2,10.4,11.2c1.3-5,7.5-9.4,10.4-11.2c4.2-2.6,12-7.9,19.1-13.4
			c7.2-5.6,13.8-11.5,15.7-15.7C156,129,153.7,123,153.3,122.1z M104.8,151.8l-0.3,0.1l0.2,0.3c0.1,0.2,0.2,0.3,0.2,0.5
			c2.5,5.2,2.5,9.8,2,12.7c-0.3,2-1.4,3.3-3,3.7c-0.2,0-0.5,0.1-0.7,0.1c-1.5,0-2.8-1-3.2-2.5c-0.2-0.8,0-1.7,0.4-2.4
			c0.5-0.7,1.2-1.3,2-1.4c0.1,0,0.2,0,0.3,0c0.2,0,0.4,0.1,0.6,0.2c0.3,0.2,0.5,0.4,0.5,0.7c0.2,0.7-0.3,1.3-0.9,1.5
			c-0.4,0.1-0.7,0.6-0.6,1c0.1,0.2,0.2,0.4,0.4,0.5c0.2,0.1,0.4,0.2,0.6,0.1c0.3-0.1,0.9-0.2,1.2-1.7c0.3-1.8,0.4-4.5-0.5-7.8
			l-0.2-0.8l-0.3,0.8c-0.4,1.3-1.2,2.3-2.4,2.9c-1.6,0.8-3.5,0.7-5.2-0.3c-2.4-1.4-4-4.4-4-7.2c0-0.4-0.8-2-1.6-2
			c-0.6,0-1.1,0.1-1.1,1.4c0,0.7-0.6,1.2-1.2,1.2c-0.7,0-1.2-0.5-1.2-1.2c0-2.3,1.4-3.8,3.6-3.8c0.9,0,1.8,0.4,2.5,1.2l0.2,0.2
			l0.2-0.2c0.6-0.5,1.3-0.8,2.1-0.9c1.7-0.1,3.7,1,4,3c0.1,0.7-0.4,1.3-1,1.4c-0.3,0-0.6,0-0.9-0.2c-0.3-0.2-0.4-0.5-0.5-0.8
			c-0.1-0.7-0.9-1-1.4-1c-0.4,0-1.1,0.3-1.1,1.7c0,1.9,1.2,4.2,2.8,5.1c1,0.6,1.9,0.7,2.8,0.2c1.1-0.6,1.6-2,1.4-4.3
			c-0.2-2.5-2.4-4.7-2.4-4.7l-0.1-0.1c-2.6-2.5-5.8-4.2-9.6-5.2c-0.2,0-0.4-0.1-0.5-0.1c-0.6-0.2-1.3-0.3-2-0.6l-0.4-0.2l0.1,0.4
			c0.2,0.8,0.2,1.6,0,2.4c-0.4,1.4-1.2,2.1-1.8,2.3c-0.8,0.4-1.9,0.3-2.7-0.1c-0.7-0.4-1.3-1.1-1.4-1.8c-0.2-0.7,0-1.5,0.5-2.1
			c0.4-0.5,1.2-0.6,1.7-0.2c0.3,0.2,0.4,0.5,0.5,0.8c0,0.3,0,0.6-0.2,0.9l-0.1,0.2l0.2,0.1l0.1,0c0.2,0.1,0.4,0.1,0.6,0
			c0.2-0.1,0.4-0.4,0.4-0.7c0.4-1.5-0.7-3.4-3-5c-4.8-3.4-7.9-7.7-8.6-9.7l0,0c0,0,0-0.1,0-0.1c0,0,0,0,0-0.1v-0.2c0,0,0-0.1,0-0.1
			c0,0,0-0.1,0-0.1c0,0,0-0.1,0-0.1c0-0.1,0-0.1,0.1-0.1c0,0,0-0.1,0-0.1c0,0,0-0.1,0.1-0.1c0,0,0-0.1,0.1-0.1c0,0,0,0,0.1-0.1
			c0,0,0.1-0.1,0.1-0.1l0.4-0.2c0,0,0.1,0,0.1,0c0,0,0.1,0,0.1,0h0.1c0.1,0,0.1,0,0.1,0c0,0,0.1,0,0.1,0c0,0,0.1,0,0.1,0
			c0,0,0.1,0,0.1,0c0,0,0.1,0,0.1,0.1c0,0,0.1,0,0.1,0.1c0,0,0.1,0,0.1,0.1c0,0,0.1,0,0.1,0.1c0,0,0,0.1,0.1,0.1c0,0,0,0,0,0
			c1.1,1.8,3.4,2.3,5.2,1.2c1.8-1.1,2.3-3.4,1.2-5.2c-0.7-1.2-2-1.8-3.3-1.8c-0.3,0-0.6-0.1-0.8-0.3c-0.2-0.2-0.4-0.5-0.4-0.9
			c0-0.7,0.5-1.2,1.2-1.2h0.1c2.1,0,4.2,1.1,5.3,3c0.9,1.4,1.1,3.1,0.8,4.7c-0.4,1.6-1.4,3-2.8,3.9c-1,0.6-2.1,0.9-3.2,0.9h-0.6
			l0.4,0.4c1.4,1.5,2.9,2.8,4.5,4l0.1,0.1c2.2,1.5,4.5,2.6,6.7,3.2h0.1c0.4,0,1.8-0.1,2.7-1c0.7-0.7,1.1-1.9,1-3.5
			c-0.1-2.1-0.8-3.4-2.2-3.8c-1.2-0.4-2.4,0-2.7,0.4c-0.4,0.5-0.5,1.5-0.1,2c0.2,0.2,0.5,0.4,1.3,0c0.3-0.1,0.6-0.1,0.9,0
			c0.3,0.1,0.5,0.3,0.7,0.6c0.1,0.3,0.1,0.6,0,0.9c-0.1,0.3-0.3,0.5-0.6,0.7c-1.5,0.7-3,0.5-4-0.5l-0.1-0.1l-0.2,0.1
			c-0.3,0.1-0.5,0.2-0.8,0.3c-1.8,0.3-3.4-0.8-3.9-2.4c-0.2-0.6,0.1-1.3,0.8-1.5c0.6-0.2,1.3,0.2,1.5,0.8c0.2,0.6,0.7,0.8,1.2,0.7
			c0.5-0.1,0.5-0.4,0.5-0.5v-0.1c0-0.9,0.4-1.8,0.9-2.5c0.9-1.1,3.1-1.9,5.3-1.2c1.4,0.4,3.7,1.8,3.9,6c0.1,2-0.3,3.7-1.3,4.9
			l-0.3,0.4l0.5,0c2.4,0,4.4-0.7,5.9-1.8c2.4-1.8,3.7-4.9,3.8-9.2c0.2-7.8-2-10.8-3.9-12c-1.6-1-3.6-1-5.4-0.1
			c-1.6,0.8-1.9,3-1.6,4.6c0.3,1.8,1.4,3.8,3.1,4c1.1,0.2,2.1,0,2.6-0.5c0.4-0.3,0.7-0.8,0.7-1.5c0-0.6-0.1-1-0.4-1.1
			c-0.1,0-0.1,0-0.2,0h-0.1l-0.1,0.1c-0.5,0.4-1.2,0.4-1.7-0.1c-0.2-0.2-0.4-0.5-0.3-0.9c0-0.3,0.1-0.6,0.4-0.8c0.8-0.7,2-0.9,3-0.5
			c1.2,0.6,1.9,1.9,1.8,3.5c-0.1,1.2-0.5,2.3-1.3,3l-0.2,0.2l0.2,0.2c0.1,0.1,0.2,0.2,0.3,0.3c0.7,0.9,0.8,2,0.5,3.1
			c-0.3,0.8-0.8,1.5-1.5,1.8c-0.5,0.3-1.1,0.4-1.7,0.4c-0.8,0-1.5-0.2-1.6-0.3c-0.6-0.2-1-0.9-0.8-1.5c0.2-0.6,0.9-1,1.5-0.8
			c0.4,0.1,1.1,0.2,1.5,0c0.1-0.1,0.2-0.1,0.3-0.4c0.1-0.3,0.1-0.6-0.1-0.9c-0.3-0.5-1.1-0.8-2-0.8l-0.1,0c-0.3,0-0.6,0-0.9-0.1
			c-2.9-0.4-4.7-3.3-5.2-6c-0.5-3.2,0.6-6,2.9-7.2c2.6-1.3,5.5-1.2,7.8,0.2c2.4,1.5,5.2,5.2,5.1,14.1c-0.1,4-1.1,7.2-3,9.5l-0.2,0.3
			l0.3,0.1c1.5,0.6,2.4,1.6,2.8,2.5c0.1,0.3,0.2,0.6,0,0.9c-0.1,0.3-0.3,0.5-0.6,0.7c-0.6,0.3-1.3,0-1.6-0.6
			c-0.2-0.5-1.7-2.2-4.4-1.1c-0.8,0.3-1.6,0.6-2.5,0.8l-0.6,0.1l0.5,0.3c1.3,0.8,2.4,1.7,3.5,2.7l0.1,0.1c1.4,1.2,2.7,2.4,3.5,2.3
			c0.4,0,0.6-0.5,0.6-1.2c0-0.7,0.5-1.2,1.2-1.2c0.7,0,1.2,0.5,1.2,1.2C107.3,151.1,105.4,151.7,104.8,151.8z M146.4,129.9v0.1
			c0,0,0,0.1,0,0.1c0,0,0,0,0,0.1l0,0c-0.6,2-3.7,6.3-8.6,9.7c-2.3,1.7-3.3,3.5-2.9,5c0.1,0.3,0.2,0.6,0.5,0.7
			c0.2,0.1,0.4,0,0.6-0.1l0.3-0.2l-0.1-0.2c-0.2-0.3-0.3-0.6-0.2-0.9c0-0.3,0.2-0.6,0.5-0.8c0.3-0.2,0.6-0.3,0.9-0.2
			c0.3,0,0.6,0.2,0.8,0.5c0.5,0.6,0.7,1.4,0.5,2.1c-0.2,0.8-0.7,1.5-1.4,1.8c-0.8,0.4-1.9,0.5-2.7,0.1c-0.6-0.3-1.4-0.9-1.8-2.3
			c-0.2-0.8-0.2-1.6,0-2.4l0.1-0.4l-0.4,0.2c-0.7,0.2-1.3,0.4-2,0.6c-0.1,0-0.3,0.1-0.5,0.1c-3.8,1-7,2.7-9.6,5.2l-0.2,0.2v0
			c-0.4,0.4-2.2,2.4-2.4,4.6c-0.2,2.3,0.3,3.8,1.4,4.3c0.9,0.5,1.8,0.4,2.8-0.2c1.6-1,2.8-3.2,2.8-5.1c0-1.4-0.7-1.7-1.1-1.7
			c-0.5,0-1.3,0.3-1.4,1c0,0.3-0.2,0.6-0.5,0.8c-0.3,0.2-0.6,0.3-0.9,0.2c-0.7-0.1-1.1-0.7-1-1.4c0.3-2.1,2.3-3.1,4-3
			c0.8,0.1,1.5,0.4,2.1,0.9l0.2,0.2l0.2-0.2c0.7-0.8,1.6-1.2,2.5-1.2c2.2,0,3.6,1.5,3.6,3.8c0,0.7-0.5,1.2-1.2,1.2
			c-0.7,0-1.2-0.5-1.2-1.2c0-1.2-0.5-1.4-1.2-1.4c-0.8,0-1.5,1.6-1.6,2c0,2.8-1.7,5.8-4,7.2c-1.7,1-3.6,1.1-5.2,0.3
			c-1.1-0.6-1.9-1.5-2.3-2.9l-0.3-0.8l-0.2,0.8c-0.9,3.2-0.8,6-0.5,7.8c0.2,1.3,0.7,1.6,1.2,1.7c0.2,0,0.4,0,0.6-0.1
			c0.2-0.1,0.3-0.3,0.4-0.5c0.1-0.4-0.2-0.9-0.6-1c-0.7-0.1-1.1-0.8-0.9-1.5c0.1-0.3,0.3-0.6,0.5-0.7c0.3-0.2,0.6-0.2,0.9-0.2
			c0.8,0.2,1.6,0.7,2,1.4c0.5,0.7,0.6,1.6,0.4,2.4c-0.3,1.5-1.6,2.5-3.2,2.5c-0.3,0-0.5,0-0.7-0.1c-1.6-0.4-2.7-1.7-3-3.7
			c-0.5-2.9-0.5-7.5,2-12.7c0.1-0.1,0.1-0.3,0.2-0.5l0.2-0.3l-0.3-0.1c-0.6-0.1-2.5-0.8-2.5-3.6c0-0.7,0.5-1.2,1.2-1.2
			s1.2,0.5,1.2,1.2c0,0.8,0.2,1.2,0.6,1.2c0.8,0.1,2.2-1.1,3.5-2.3l0.1-0.1c1.1-1,2.3-1.9,3.5-2.7l0.5-0.3l-0.6-0.1
			c-0.9-0.2-1.8-0.5-2.6-0.8c-2.7-1.1-4.2,0.6-4.4,1.1c-0.3,0.6-1,0.9-1.6,0.6c-0.3-0.1-0.5-0.4-0.6-0.7c-0.1-0.3-0.1-0.6,0-0.9
			c0.4-0.8,1.3-1.9,2.8-2.5l0.3-0.1l-0.2-0.3c-1.9-2.3-2.9-5.5-3-9.5c-0.2-8.9,2.6-12.6,5.1-14.1c2.3-1.5,5.2-1.5,7.8-0.2
			c2.3,1.2,3.4,4,2.9,7.2c-0.5,2.7-2.2,5.6-5.2,6c-0.3,0-0.6,0.1-1,0.1h-0.1c-1,0-1.7,0.3-2.1,0.8c-0.2,0.3-0.2,0.6-0.1,0.9
			c0.1,0.3,0.2,0.3,0.3,0.4c0.4,0.2,1.1,0.1,1.5,0c0.6-0.2,1.3,0.1,1.5,0.8c0.2,0.6-0.1,1.3-0.8,1.5c-0.2,0.1-0.8,0.3-1.6,0.3
			c-0.6,0-1.2-0.1-1.7-0.4c-0.7-0.4-1.3-1-1.5-1.8c-0.4-1.1-0.2-2.2,0.5-3.1c0.1-0.1,0.2-0.2,0.3-0.3l0.2-0.2l-0.2-0.2
			c-0.8-0.8-1.2-1.8-1.3-3c-0.1-1.6,0.6-2.9,1.8-3.5c1-0.5,2.3-0.3,3,0.5c0.2,0.2,0.4,0.5,0.4,0.8c0,0.3-0.1,0.6-0.3,0.9
			c-0.5,0.5-1.2,0.5-1.7,0.1l-0.1-0.1h-0.1c-0.1,0-0.1,0-0.2,0c-0.3,0.1-0.5,0.6-0.4,1.1c0,0.7,0.3,1.2,0.7,1.5
			c0.6,0.5,1.5,0.7,2.6,0.5c1.7-0.2,2.8-2.3,3.1-4c0.3-1.6,0-3.8-1.6-4.6c-1.8-0.9-3.8-0.9-5.4,0.1c-1.9,1.2-4.1,4.2-3.9,12
			c0.1,4.4,1.4,7.5,3.8,9.2c1.5,1.1,3.5,1.7,5.9,1.8l0.5,0l-0.3-0.4c-1-1.2-1.4-2.8-1.3-4.9c0.2-4.2,2.5-5.5,3.9-6
			c2.2-0.7,4.4,0.1,5.3,1.2c0.6,0.7,0.9,1.6,0.9,2.5v0.1c0,0.1,0,0.5,0.5,0.5c0.3,0,1,0,1.2-0.7c0.2-0.6,0.9-1,1.5-0.8
			c0.6,0.2,1,0.9,0.8,1.5c-0.5,1.5-1.8,2.4-3.4,2.4c-0.2,0-0.3,0-0.5,0c-0.3,0-0.6-0.1-0.8-0.3l-0.2-0.1l-0.1,0.1
			c-1,1-2.5,1.2-4,0.5c-0.3-0.1-0.5-0.4-0.6-0.7c-0.1-0.3-0.1-0.6,0-0.9c0.1-0.3,0.4-0.5,0.7-0.6c0.3-0.1,0.6-0.1,0.9,0
			c0.8,0.4,1.2,0.2,1.3,0c0.4-0.5,0.3-1.4-0.1-2c-0.3-0.3-1.5-0.8-2.7-0.4c-1.4,0.4-2.1,1.7-2.2,3.8c-0.1,1.6,0.3,2.7,1,3.5
			c0.9,0.9,2.3,1,2.7,1h0.1c2.2-0.6,4.5-1.6,6.7-3.2l0.1-0.1c0,0,0,0,0.1,0c1.6-1.1,3.1-2.5,4.5-4l0.4-0.4h-0.6
			c-1.1,0-2.2-0.3-3.2-0.9c-1.4-0.9-2.4-2.3-2.8-3.9c-0.4-1.6-0.1-3.3,0.8-4.7c1.1-1.8,3.2-3,5.3-3h0.1c0.3,0,0.6,0.1,0.9,0.4
			c0.2,0.2,0.3,0.5,0.3,0.9c0,0.3-0.1,0.6-0.4,0.9c-0.2,0.2-0.5,0.3-0.9,0.3c-1.3,0-2.6,0.6-3.3,1.8c-1.1,1.8-0.6,4.1,1.2,5.2
			c1.8,1.1,4.1,0.6,5.2-1.2l0.1-0.1c0,0,0-0.1,0.1-0.1l0.1-0.1c0,0,0.1-0.1,0.1-0.1c0,0,0.1,0,0.1-0.1c0,0,0.1,0,0.1-0.1
			c0,0,0.1,0,0.1,0c0,0,0.1,0,0.1,0c0,0,0.1,0,0.1,0c0,0,0.1,0,0.1,0c0,0,0.1,0,0.1,0c0,0,0.1,0,0.1,0c0,0,0.1,0,0.1,0l0.1,0
			c0,0,0,0,0.1,0l0.3,0.1c0,0,0,0,0.1,0.1c0,0,0,0,0.1,0.1c0,0,0,0.1,0.1,0.1c0,0,0,0.1,0.1,0.1c0,0,0,0.1,0.1,0.1c0,0,0,0.1,0,0.1
			c0,0,0,0.1,0,0.1c0,0,0,0.1,0,0.1c0,0.1,0,0.1,0,0.1C146.5,129.8,146.5,129.8,146.4,129.9z"/>
		<path class="st2" d="M161.1,121.9"/>
		<path class="st2" d="M124.1,152.5c0,1.8-1.1,3.8-2.6,4.7c-0.8,0.5-1.6,0.6-2.3,0.2c-0.9-0.5-1.3-1.8-1.1-3.8
			c0.1-1.3,0.8-2.5,1.5-3.4c-0.1,0.3-0.3,0.7-0.3,1c-0.1,0.9,0.5,1.8,1.4,2c0.5,0.1,0.9,0,1.3-0.3c0.4-0.3,0.6-0.7,0.7-1.1
			c0.1-0.4,0.6-0.6,0.9-0.5C123.9,151.3,124.1,151.7,124.1,152.5z"/>
		<path class="st2" d="M122.3,124.4c0.3-0.3,0.5-0.8,0.5-1.2c0-0.5-0.2-0.9-0.5-1.2c-0.9-0.9-2.4-1.1-3.6-0.6
			c-1.4,0.7-2.2,2.1-2.1,3.9c0.1,1.2,0.5,2.3,1.3,3.2c-0.1,0.1-0.1,0.1-0.2,0.2c-0.7,1-0.9,2.3-0.5,3.5c0.3,1,0.9,1.7,1.8,2.1
			c0.6,0.3,1.2,0.4,1.9,0.4c0.9,0,1.6-0.2,1.8-0.3c0.4-0.1,0.6-0.3,0.8-0.6c-0.2,0.7-0.4,1.5-0.4,2.5c-0.1,1.9,0.3,3.5,1.1,4.8
			c-2.1-0.1-3.8-0.7-5.1-1.7c-2.3-1.7-3.5-4.7-3.6-8.9c-0.2-7.5,1.9-10.4,3.7-11.5c0.7-0.5,1.6-0.7,2.5-0.7c0.8,0,1.6,0.2,2.4,0.6
			c1.4,0.7,1.6,2.6,1.3,4.1c-0.3,1.6-1.2,3.4-2.7,3.6c-1,0.1-1.8,0-2.2-0.4c-0.3-0.3-0.5-0.6-0.5-1.2c0-0.3,0-0.5,0.1-0.6
			C120.8,125.1,121.7,125,122.3,124.4z"/>
		<path class="st2" d="M99.9,157.4c-0.7,0.4-1.5,0.3-2.3-0.2c-1.5-0.9-2.6-2.9-2.6-4.7c0-0.8,0.2-1.2,0.6-1.2c0,0,0,0,0.1,0
			c0.3,0,0.8,0.2,0.8,0.5c0.1,0.5,0.3,0.9,0.7,1.1c0.4,0.3,0.8,0.4,1.3,0.3c0.9-0.1,1.6-1,1.4-2c-0.1-0.4-0.2-0.7-0.3-1.1
			c0.6,0.8,1.4,2.1,1.5,3.4C101.2,155.7,100.8,157,99.9,157.4z"/>
		<path class="st2" d="M103.5,130.7c-0.1,4.2-1.3,7.2-3.6,8.9c-1.3,1-3.1,1.6-5.1,1.7c0.8-1.3,1.2-2.9,1.1-4.8
			c-0.1-1-0.2-1.8-0.4-2.5c0.2,0.3,0.5,0.5,0.8,0.6c0.2,0.1,0.9,0.3,1.8,0.3c0.7,0,1.4-0.1,1.9-0.4c0.9-0.4,1.5-1.2,1.8-2.1
			c0.4-1.2,0.2-2.5-0.5-3.5c0-0.1-0.1-0.1-0.2-0.2c0.8-0.8,1.2-1.9,1.3-3.2c0.1-1.8-0.7-3.3-2.1-3.9c-1.2-0.6-2.7-0.3-3.6,0.5
			c-0.3,0.3-0.5,0.8-0.5,1.2c0,0.5,0.2,0.9,0.5,1.2c0.6,0.6,1.6,0.7,2.2,0.2c0.1,0.1,0.1,0.3,0.1,0.6c0,0.5-0.2,0.9-0.5,1.2
			c-0.5,0.4-1.2,0.5-2.3,0.4c-1.5-0.2-2.4-2-2.7-3.6c-0.2-1.4,0-3.4,1.3-4.1c1.6-0.8,3.5-0.8,4.9,0.1
			C101.6,120.3,103.7,123.2,103.5,130.7z"/>
		<path class="st2" d="M154.3,143c-6.2,10.2-33.8,27.6-34.1,27.8c-3.1,1.9-10.4,7.9-10.6,13.3c0,0.1,0,0.2,0,0.2c0-0.1,0-0.2,0-0.2
			c-0.2-5.4-7.6-11.4-10.6-13.3c-0.3-0.2-27.9-17.5-34.1-27.8c0.1,0.7-0.1-0.4,0.1,0.3c0.2,1.1,0.4,2.3,0.7,3.5
			c0.1,0.2,0.1,0.5,0.2,0.7c0.1,0.3,0.1,0.6,0.2,0.9c0.1,0.4,0.2,0.7,0.3,1.1c0.1,0.4,0.2,0.8,0.3,1.3c0.1,0.4,0.2,0.8,0.4,1.2
			c0,0,0,0.1,0,0.1c0.1,0.4,0.2,0.8,0.4,1.2c0.3,0.9,0.5,1.7,0.8,2.6c0.2,0.4,0.3,0.9,0.5,1.3c0.3,0.9,0.6,1.8,1,2.6
			c1,0.9,19.5,17.4,40,31.8c20.4-14.4,38.9-30.9,40-31.8c0.3-0.9,0.7-1.8,1-2.6c0.2-0.4,0.3-0.9,0.5-1.3c0.3-0.9,0.6-1.7,0.8-2.6
			c0.1-0.4,0.3-0.8,0.4-1.2c0,0,0-0.1,0-0.1c0.1-0.4,0.2-0.8,0.4-1.2c0.1-0.4,0.2-0.8,0.3-1.3c0.1-0.4,0.2-0.7,0.3-1.1
			c0.1-0.3,0.1-0.6,0.2-0.9c0.1-0.2,0.1-0.5,0.2-0.7c0.3-1.2,0.5-2.3,0.7-3.5C154.4,142.6,154.2,143.8,154.3,143z"/>
		<path class="st2" d="M155.9,154.9c0.5-1.4,1.6-5.4,1.5-9.2c0.1,0.2,0.3,0.5,0.5,0.9c0.3,0.5,0.5,1.1,0.6,1.6
			c0,0.1,0.1,0.3,0.1,0.4c0.1,0.3,0.1,0.5,0.1,0.8c0,0.1,0,0.3,0,0.4c0,0.2,0,0.4,0,0.7c0,0.2,0,0.3,0,0.4l-0.1,0.4l0.4-0.1
			c0,0,0.1,0,0.2,0c0,0,0.1,0,0.2,0c0.3-0.1,0.6-0.1,1.1-0.2c0,0,0,0,0,0l0.1,0c0,0,0,0,0.1,0c0.2,0,0.3,0,0.5,0
			c0.8,0,1.6,0,2.5,0.1l0.1,0c0.1,0,0.1,0,0.2,0C162.7,151.6,160,153.2,155.9,154.9z"/>
		<g>
			<path class="st2" d="M112.9,63.4c0,1.9-1.5,3.4-3.4,3.4s-3.4-1.5-3.4-3.4c0-1.9,1.5-3.4,3.4-3.4S112.9,61.5,112.9,63.4z"/>
			<path class="st2" d="M117.4,48.8c0,4.4-3.5,7.9-7.9,7.9c-4.4,0-7.9-3.5-7.9-7.9c0-4.4,3.5-7.9,7.9-7.9
				C113.9,40.9,117.4,44.5,117.4,48.8z"/>
			<path class="st2" d="M115,35.5c-1.7-0.7-3.6-1.1-5.5-1.1c-1.9,0-3.7,0.4-5.5,1.1c-0.9-3.5-0.4-8.7-0.4-8.8c0.6-4.5,3-4.5,5.8-4.5
				s5.2,0,5.8,4.5C115.4,27.3,115.8,32.2,115,35.5z"/>
			<path class="st2" d="M121.1,75.4c-1.1-1.2-2.8-2.2-4.9-2.8c-0.9-0.3-1.8-0.4-2.6-0.4c-1.2,0-2.3,0.3-3.2,1
				c-0.4,0.3-0.7,0.6-0.9,0.9c-0.3-0.4-0.6-0.7-0.9-0.9c-0.8-0.6-1.9-1-3.2-1c-0.8,0-1.7,0.1-2.6,0.4c-2.1,0.6-3.8,1.6-4.9,2.8
				c0.1-0.3,0.2-0.7,0.3-1l0.1-0.3l0-0.1c0.6-1.4,1.7-2.8,3.2-4c0.5-0.4,1-0.8,1.5-1.1c0.1,0,0.2-0.1,0.3-0.2c0.6-0.3,1.3-0.7,2-0.9
				c0.1,0,0.2-0.1,0.2-0.1l0.1,0c0.2-0.1,0.4-0.1,0.6-0.2c0.1,0,0.2,0,0.3-0.1c0.9,0.6,1.9,1,3,1c1.1,0,2.1-0.3,2.9-1c0,0,0,0,0,0
				c0.2,0,0.4,0.1,0.6,0.2c0.1,0,0.1,0,0.2,0.1l0,0c0.1,0,0.2,0.1,0.3,0.1c0.6,0.2,1.1,0.4,1.6,0.7c0.2,0.1,0.4,0.2,0.7,0.4
				c0.1,0.1,0.3,0.2,0.4,0.3c0.1,0.1,0.2,0.1,0.3,0.2c0.3,0.2,0.5,0.4,0.8,0.6c0.3,0.3,0.6,0.6,0.9,0.8c0.3,0.3,0.6,0.6,0.8,0.9
				c0.1,0.1,0.2,0.3,0.3,0.4c0.2,0.3,0.4,0.6,0.6,0.9c0.2,0.3,0.4,0.6,0.5,0.9l0.1,0.1l0.1,0.3C120.9,74.7,121,75.1,121.1,75.4z"/>
			<path class="st2" d="M139.5,59.2c0,4.5-3.6,8.1-8.1,8.1c-4.5,0-8.1-3.6-8.1-8.1c0-4.5,3.6-8.1,8.1-8.1
				C135.8,51.1,139.5,54.7,139.5,59.2z"/>
			<path class="st2" d="M79.6,59.2c0,4.5,3.6,8.1,8.1,8.1c4.5,0,8.1-3.6,8.1-8.1c0-4.5-3.6-8.1-8.1-8.1
				C83.2,51.1,79.6,54.7,79.6,59.2z"/>
			<path class="st2" d="M169.9,59.6c-1.3,2.1-3.3,5.8-5.2,10.3c-2.7,6.1-5.8,15.1-5.8,23.9c-0.8-1.1-1.6-2.8-1.7-5.3l0-1l0-2.2l-1,2
				l-0.5,0.9c-0.1,0.1-5.8,11.7-3.2,25.6c-1.2-0.2-3.3-0.6-5.8-1.8c-3.7-1.7-9.2-5.5-14.2-13.2l-0.4-0.6l-0.8-1.3l-0.2,1.6L131,99
				c0,0.5-0.4,4.4,0.9,8.1c-2.4-0.8-7.2-2.7-10.9-6.5c-4.4-4.4-7-6.5-11.4-6.5s-7,2.1-11.4,6.5c-3.7,3.7-8.5,5.7-11,6.5
				c1.2-3.8,0.9-7.7,0.9-8.1L88,98.3l-0.1-1.6L87,98l-0.4,0.6c-5,7.8-10.5,11.5-14.2,13.2c-2.5,1.2-4.6,1.7-5.8,1.8
				c2.6-13.9-3.2-25.5-3.2-25.6l-0.5-0.9l-1-2l0,2.2l0,1c0,2.5-0.9,4.3-1.7,5.3c0-8.8-3.1-17.8-5.8-23.9c-1.9-4.5-4-8.1-5.2-10.3
				c2.4,0.8,6.3,2,10.2,2c1.1,0,2.2-0.1,3.1-0.3c1.1-0.2,2.3-0.3,3.5-0.3c5,0,9.9,2.1,12.5,5.3l0.1,0.1l0,0c1.6,1.9,3.8,3,7,3.5
				c0.6,0.1,1.2,0.1,1.9,0.1c3.7,0,6.8-1.7,9.7-3.2c1.7-0.9,3.4-1.8,4.9-2.2c0.8-0.2,1.7-0.4,2.5-0.6c0.1,0.8,0.4,1.5,0.8,2.2
				c0,0,0,0,0,0l-0.1,0l-0.2,0l-0.2,0.1c-0.6,0.2-1.3,0.5-1.9,0.8c-0.1,0.1-0.3,0.2-0.4,0.2c-0.1,0.1-0.3,0.2-0.4,0.3l-0.1,0.1
				c-0.1,0-0.2,0.1-0.3,0.2l-0.2,0.1l-0.2,0.1c-0.3,0.2-0.6,0.5-0.9,0.7c-0.4,0.3-0.7,0.6-1,1c-0.4,0.4-0.8,0.8-1.1,1.3
				c-0.3,0.3-0.5,0.6-0.7,0.9c-0.2,0.3-0.4,0.6-0.5,0.9c-0.1,0.2-0.2,0.4-0.3,0.6h-0.6c-3.4,0-8.2-0.3-12.3-1.6
				c-2.6-0.8-4.9-2-7.1-3.1c-3.1-1.5-6-3-8.9-3c-0.4,0-0.7,0-1.1,0.1c-2.4,0.3-4.2,1.3-5.2,2.9c-1,1.5-1.1,3.6-0.4,5.7
				c0.3,0.8,0.6,1.7,1.2,3c1.6,4,4.1,9.9,5.4,18.5c0.7,4.2,2.1,6.8,4.5,7.5c0.5,0.2,1,0.2,1.6,0.2c3.2,0,6.5-2.9,7.8-4.1
				c2-1.9,9.9-8.3,27.8-8.3c17.9,0,25.8,6.3,27.8,8.3c1,1,4.4,4.1,7.8,4.1c0.5,0,1-0.1,1.6-0.2c2.3-0.8,3.8-3.3,4.4-7.5
				c1.3-8.5,3.8-14.5,5.4-18.5l0-0.1c0.5-1.2,0.9-2.1,1.1-2.9c0.7-2.1,0.5-4.1-0.4-5.7c-1-1.6-2.8-2.6-5.2-2.9
				c-0.3,0-0.7-0.1-1.1-0.1c-2.9,0-5.8,1.4-8.9,3c-2.2,1.1-4.5,2.2-7.1,3.1c-4.1,1.3-8.9,1.6-12.2,1.6c-0.2,0-0.5,0-0.7,0
				c-0.7-1.6-2-3.2-3.6-4.6c-0.4-0.3-0.8-0.7-1.3-1c-0.1-0.1-0.2-0.1-0.3-0.2c-0.1-0.1-0.2-0.1-0.2-0.1c-0.1-0.1-0.2-0.1-0.4-0.2
				c-0.1-0.1-0.3-0.1-0.4-0.2c-0.3-0.1-0.5-0.3-0.8-0.4c-0.2-0.1-0.4-0.2-0.6-0.2l-0.1,0c-0.1,0-0.2-0.1-0.3-0.1l-0.2,0l-0.2-0.1
				l-0.1,0c0.4-0.7,0.7-1.4,0.8-2.2c0.8,0.2,1.7,0.4,2.5,0.6c1.6,0.4,3.2,1.3,4.9,2.2l0,0c2.8,1.5,6,3.2,9.7,3.2
				c0.6,0,1.2,0,1.9-0.1c3.2-0.5,5.4-1.6,7-3.5l0,0c0,0,0.1-0.1,0.1-0.1l0,0v0c2.6-3.2,7.5-5.3,12.5-5.3c1.2,0,2.4,0.1,3.5,0.3
				c1,0.2,2,0.3,3.1,0.3C163.5,61.6,167.5,60.4,169.9,59.6z"/>
			<path class="st2" d="M121,79.4c-0.1,0.6-0.6,1-1,1.3c-0.9,0.6-2.4,1-4,1c-0.7,0-1.5-0.1-2.1-0.3c-3.2-0.9-3.6-3.3-3.6-4.6
				c0-1,0.4-1.8,1.1-2.4c0.6-0.4,1.3-0.6,2.2-0.6c0.7,0,1.4,0.1,2.1,0.3C119.2,75.2,121.3,77.3,121,79.4z"/>
			<path class="st2" d="M108.7,76.8c0,1.4-0.5,3.8-3.6,4.6c-0.6,0.2-1.4,0.3-2.1,0.3c-1.5,0-3-0.4-4-1c-0.6-0.4-0.9-0.8-1-1.3v0l0,0
				c-0.3-2.2,1.8-4.2,5.3-5.2c0.8-0.2,1.5-0.3,2.1-0.3c0.9,0,1.7,0.2,2.2,0.6C108.3,75,108.7,75.8,108.7,76.8z"/>
			<path class="st2" d="M122.2,90.9c-1.7-0.3-3.5-0.6-5.3-0.8c2-1.7,3.8-4.1,5.3-6.6C122.7,84.9,123.3,87.4,122.2,90.9z"/>
			<path class="st2" d="M144.7,102.1c-2.6-0.3-5.4-2.8-6.2-3.6c-0.2-0.2-0.4-0.4-0.7-0.6c0.6-1.5,1.2-4.2-0.1-7.8
				C140,91.6,143.7,95,144.7,102.1z"/>
			<path class="st2" d="M132.9,74c0,3.7-1,6.7-2.9,8.7c-0.5,0.6-1.1,1-1.5,1.3c1.2-3.9,0.8-7.1,0.2-9.3
				C130.2,74.5,131.6,74.3,132.9,74z"/>
			<path class="st2" d="M154.8,68.5c-0.2,2.8-1.9,4.7-5,5.6c0.7-1.5,1.3-4,0.5-6.7c0.3,0,0.5,0,0.8,0c0.3,0,0.6,0,0.9,0
				C153.1,67.6,154.1,67.9,154.8,68.5z"/>
			<path class="st2" d="M114.2,86.2c0,0.9-0.1,2.5-0.3,3.6c-1.2-0.1-2.4-0.1-3.5-0.1v-3.5c0-0.1,0.1-0.2,0.2-0.2h3.5
				c0,0,0.1,0,0.1,0.1C114.1,86.1,114.2,86.2,114.2,86.2z"/>
			<path class="st2" d="M151.8,85.9c-0.7,2.3-1.3,4.7-1.7,7.1c-4.1-3.9-4.8-8.7-4.8-11.3C147.9,84.2,150.2,85.4,151.8,85.9z"/>
			<path class="st2" d="M102.1,90.1c-1.8,0.2-3.6,0.5-5.3,0.8c-1.1-3.5-0.5-6.1,0-7.4C98.3,86,100.2,88.4,102.1,90.1z"/>
			<path class="st2" d="M81.2,97.8c-0.3,0.2-0.5,0.4-0.7,0.6c-0.8,0.8-3.6,3.3-6.2,3.6c1-7.1,4.7-10.5,7-12
				C80.1,93.6,80.6,96.3,81.2,97.8z"/>
			<path class="st2" d="M90.6,84c-0.5-0.3-1-0.7-1.5-1.3c-1.4-1.4-3-4.1-2.9-8.7c1.3,0.3,2.7,0.5,4.2,0.7
				C89.7,76.9,89.4,80.1,90.6,84z"/>
			<path class="st2" d="M69.3,74.1c-3.2-0.9-4.9-2.8-5-5.6c0.8-0.5,1.7-0.9,2.9-1c0.3,0,0.6-0.1,0.9-0.1c0.2,0,0.5,0,0.7,0
				C67.9,70.1,68.6,72.5,69.3,74.1z"/>
			<path class="st2" d="M108.7,86.2v3.5c-1.2,0-2.3,0.1-3.5,0.1c-0.1-0.4-0.1-1-0.2-1.6c-0.1-0.9-0.1-1.6-0.1-2c0,0,0-0.1,0.1-0.1
				c0,0,0.1,0,0.1,0h3.5C108.6,86,108.7,86.1,108.7,86.2z"/>
			<path class="st2" d="M73.8,81.6c0,2.5-0.7,7.3-4.8,11.3c-0.5-2.4-1-4.8-1.7-7.1C68.9,85.4,71.1,84.2,73.8,81.6z"/>
			<path class="st2" d="M151.8,38.6c-2.4,3.3-6.2,3.8-10.1,3.8c-1.3,0-2.6-0.1-3.9-0.1l-0.5,0c-1,0-2-0.1-2.9-0.1h-0.3
				c-5.1,0-8.4,3-10.1,5.1c-0.3-2.2-1-4.3-2.2-6.2c1.4-1.7,2.8-4.1,3.6-8.9c0-0.3,0.1-0.6,0.1-0.9c4.7,0.6,7,2.6,9.2,4.4
				c1.9,1.6,3.9,3.3,7.3,4.1c1.4,0.3,2.8,0.5,4.1,0.5C148.4,40.1,150.3,39.5,151.8,38.6z"/>
			<path class="st2" d="M161.5,47.7c-3.2,1.9-6.8,3.1-11.5,4.4c-3.6,1-5.8,2.6-7,4c-0.3-1.3-0.8-2.6-1.5-3.7c1-1.4,2.9-3.4,6.4-5.3
				c0.6-0.3,1.2-0.7,1.7-1.1c0.2,0,0.4,0,0.6,0c0.3,0,0.6,0,0.9,0c1.2,0,2.3,0.1,3.3,0.3c0.8,0.2,1.7,0.4,2.3,0.6
				C158.1,47.2,159.7,47.7,161.5,47.7z"/>
			<path class="st2" d="M182.1,43.9c-1.5,0.3-3,0.5-4.5,0.5c-1.9,0-3.6-0.2-5.5-0.5c-1-0.1-2-0.3-3-0.4c-0.5,0-0.9-0.1-1.4-0.1
				c-4.2,0-7.4,1.7-8.4,2.3c-0.7-0.1-1.4-0.3-2.2-0.6l-0.3-0.1c-0.7-0.2-1.4-0.4-2.2-0.6l-0.2,0l-0.2,0c-0.4-0.1-0.9-0.1-1.4-0.2
				c-0.3,0-0.6,0-0.9-0.1c-0.1,0-0.2,0-0.2,0c1.2-1.2,2.1-2.4,2.7-3.8c1.4-0.9,3.5-2,6-2.5c0.7-0.2,1.5-0.2,2.3-0.2
				c3.4,0,7,1.5,11.3,3.7C176.7,42.7,179.3,43.6,182.1,43.9z"/>
			<path class="st2" d="M143.3,29.9c-0.8,1.6-2.7,4.2-6.7,5.4c-0.3-0.3-0.7-0.6-1.1-0.9l-0.1,0c-2.4-2-4.9-4.1-10.2-4.8
				c-0.1-1.5-0.5-2.8-1.3-3.8c0.8-0.7,2-1.3,3.5-1.3l0-0.6v0.6c2.7,0,4.4,1.3,6.2,2.7l0.3,0.3c1.5,1.2,3.6,2.8,7,2.8
				C141.8,30.1,142.5,30,143.3,29.9z"/>
			<path class="st2" d="M123.6,31.8c-0.7,4.2-1.9,6.4-3,7.9c-1.2-1.4-2.6-2.6-4.2-3.4c1.1-3.9,0.5-9.6,0.5-9.7
				c-0.1-0.6-0.2-1.1-0.3-1.6c0.6-0.1,1.5-0.3,2.7-0.3c0.8,0,2.1,0.4,3.1,1.6C123.2,27.1,124,28.9,123.6,31.8z"/>
			<path class="st2" d="M67.3,38.6c2.4,3.3,6.2,3.8,10.1,3.8c1.3,0,2.6-0.1,3.9-0.1l0.5,0c1,0,2-0.1,2.9-0.1h0.3
				c5.1,0,8.4,3,10.1,5.1c0.3-2.2,1-4.3,2.2-6.2c-1.4-1.7-2.8-4.1-3.6-8.9c0-0.3-0.1-0.6-0.1-0.9c-4.7,0.6-7,2.6-9.2,4.4
				c-1.9,1.6-3.9,3.3-7.3,4.1c-1.4,0.3-2.8,0.5-4.1,0.5C70.7,40.1,68.7,39.5,67.3,38.6z"/>
			<path class="st2" d="M57.6,47.7c3.2,1.9,6.8,3.1,11.5,4.4c3.6,1,5.8,2.6,7,4c0.3-1.3,0.8-2.6,1.5-3.7c-1-1.4-2.9-3.4-6.4-5.3
				c-0.6-0.3-1.2-0.7-1.7-1.1c-0.2,0-0.4,0-0.6,0c-0.3,0-0.6,0-0.9,0c-1.2,0-2.3,0.1-3.3,0.3c-0.8,0.2-1.7,0.4-2.3,0.6
				C60.9,47.2,59.4,47.7,57.6,47.7z"/>
			<path class="st2" d="M37,43.9c1.5,0.3,3,0.5,4.5,0.5c1.9,0,3.6-0.2,5.5-0.5c1-0.1,2-0.3,3-0.4c0.5,0,0.9-0.1,1.4-0.1
				c4.2,0,7.4,1.7,8.4,2.3c0.7-0.1,1.4-0.3,2.2-0.6l0.3-0.1c0.7-0.2,1.4-0.4,2.2-0.6l0.2,0l0.2,0c0.4-0.1,0.9-0.1,1.4-0.2
				c0.3,0,0.6,0,0.9-0.1c0.1,0,0.2,0,0.2,0c-1.2-1.2-2.1-2.4-2.7-3.8c-1.4-0.9-3.5-2-6-2.5c-0.7-0.2-1.5-0.2-2.3-0.2
				c-3.4,0-7,1.5-11.3,3.7C42.4,42.7,39.7,43.6,37,43.9z"/>
			<path class="st2" d="M75.7,29.9c0.8,1.6,2.7,4.2,6.7,5.4c0.3-0.3,0.7-0.6,1.1-0.9l0.1,0c2.4-2,4.9-4.1,10.2-4.8
				c0.1-1.5,0.5-2.8,1.3-3.8c-0.8-0.7-2-1.3-3.5-1.3l0-0.6v0.6c-2.7,0-4.4,1.3-6.2,2.7l-0.3,0.3c-1.5,1.2-3.6,2.8-7,2.8
				C77.3,30.1,76.5,30,75.7,29.9z"/>
			<path class="st2" d="M95.5,31.8c0.7,4.2,1.9,6.4,3,7.9c1.2-1.4,2.6-2.6,4.2-3.4c-1.1-3.9-0.5-9.6-0.5-9.7
				c0.1-0.6,0.2-1.1,0.3-1.6c-0.6-0.1-1.5-0.3-2.7-0.3c-0.8,0-2.1,0.4-3.1,1.6C95.9,27.1,95,28.9,95.5,31.8z"/>
		</g>
		<g>
			<path class="st2" d="M175.3,116.7c0,0.7,0,1.4-0.1,2.1c0,0.4,0,0.8-0.1,1.2c0,0.1,0,0.2,0,0.2c0,0.3-0.1,0.7-0.1,1
				c-0.3,2.2-0.8,4.4-1.4,6.6c-0.1,0.4-0.3,0.8-0.4,1.2c-1.6,4.8-4.2,9.7-7.7,14.4c-0.2,0.2-0.3,0.5-0.5,0.7l-0.1,0.1
				c-0.3,0.4-0.6,0.8-1,1.2c-0.1,0.1-0.2,0.3-0.3,0.4c-0.1,0.1-0.2,0.3-0.4,0.5c-0.2,0.2-0.4,0.5-0.6,0.7c-0.2,0.3-0.4,0.5-0.7,0.8
				c-0.3,0.3-0.6,0.6-0.9,1c-0.2,0.2-0.3,0.4-0.5,0.6c-0.2,0.2-0.3,0.3-0.4,0.5c-0.2,0-0.3,0-0.4,0.1c0,0-0.1,0-0.1,0v-0.1
				c0.3-0.6,0.6-1.2,1-1.9l0.3-0.6c0.3-0.7,0.7-1.5,1-2.2c0.1-0.2,0.2-0.4,0.3-0.6c1.2-2.7,2.1-5.5,2.9-8.2c0.2-0.6,0.3-1.2,0.4-1.8
				c0.2-0.6,0.3-1.2,0.4-1.8c0.1-0.6,0.2-1.2,0.3-1.8l0-0.3c0.1-0.9,0.3-1.8,0.4-2.7c0-0.4,0.1-0.8,0.1-1.3c0-0.5,0.1-1.1,0.1-1.6
				c0.1-1.9,0.1-3.9-0.1-5.8c-0.1-1.2-0.2-2.5-0.3-3.7c-1-10.7-1.9-20.1,6.3-36c-0.2,5.3-0.1,16,2.4,32.6
				C175.2,113.7,175.3,115.2,175.3,116.7z"/>
		</g>
		<g>
			<path class="st2" d="M185.4,112.1c2.7,18.2-12.6,31.5-22,37.8c-0.2,0-0.4,0-0.6,0c0,0-0.1,0-0.1,0c0,0,0,0,0,0
				c-0.1,0-0.3,0-0.4,0h-0.1c3.1-3.5,5.8-7.1,8.1-10.9c0.1-0.2,0.2-0.4,0.3-0.5c0.1-0.2,0.2-0.4,0.3-0.6c0.2-0.4,0.4-0.7,0.6-1.1
				c0.1-0.2,0.2-0.4,0.3-0.6l0.6-1.1c0.1-0.2,0.2-0.4,0.3-0.7l0.2-0.5c0.2-0.4,0.3-0.8,0.5-1.2c0.1-0.2,0.1-0.4,0.2-0.6
				c0.1-0.2,0.2-0.4,0.3-0.6c0.3-0.8,0.6-1.7,0.9-2.5c0.1-0.4,0.3-0.8,0.4-1.3c0.1-0.4,0.2-0.8,0.4-1.3c0.1-0.2,0.1-0.5,0.2-0.7
				l0.2-0.7c0.1-0.3,0.1-0.5,0.2-0.8c0.1-0.5,0.2-1,0.3-1.5c0.1-0.5,0.2-1,0.2-1.5c0.1-0.5,0.1-1.1,0.2-1.6c0-0.3,0-0.5,0.1-0.8
				c0.1-2.3,0.1-4.5-0.2-6.8c-2.5-19.8-3-42.2,12-58c-1.5,5.5-4.6,19.4-4.6,37.1C183.9,97.7,184.3,104.7,185.4,112.1z"/>
		</g>
		<g>
			<path class="st2" d="M165.4,123.1c0,0.9,0,1.8-0.1,2.7c0,0.3,0,0.6-0.1,0.9c0,0.3,0,0.5-0.1,0.8c0,0.2,0,0.3-0.1,0.5
				c0,0.3,0,0.5-0.1,0.8c0,0.3-0.1,0.5-0.1,0.8l0,0.1c0,0.2-0.1,0.4-0.1,0.6l-0.2,1c0,0.3-0.1,0.6-0.2,0.9l-0.1,0.5
				c0,0.2-0.1,0.4-0.1,0.6c0,0.2-0.1,0.4-0.1,0.6c-0.1,0.3-0.1,0.6-0.2,0.9c-0.1,0.3-0.1,0.6-0.2,0.8c-0.1,0.6-0.3,1.1-0.5,1.7
				l0,0.1c-0.1,0.2-0.1,0.5-0.2,0.7c-0.2,0.7-0.5,1.5-0.7,2.2l-0.2,0.5c-0.5,1.4-1,2.7-1.6,4c-0.2,0.4-0.4,0.9-0.6,1.3
				c-0.1,0.2-0.2,0.5-0.3,0.7l0,0.1c-0.1,0.2-0.2,0.3-0.2,0.5l-0.2-0.6c-0.1-0.2-0.1-0.3-0.2-0.5c0.5-2.3,0.9-4.6,1.2-6.8
				c0.3-2.3,0.5-4.5,0.6-6.8c0.2-4.4,0-8.1-0.2-11.8v-0.2c-0.4-8.2-0.8-14.9,3.4-23.2c0,3.3,0.3,10,1.5,21.8
				C165.4,120.7,165.4,121.9,165.4,123.1z"/>
		</g>
		<path class="st2" d="M63.2,154.9c-0.5-1.4-1.6-5.4-1.5-9.2c-0.1,0.2-0.3,0.5-0.5,0.9c-0.3,0.5-0.5,1.1-0.6,1.6
			c0,0.1-0.1,0.3-0.1,0.4c-0.1,0.3-0.1,0.5-0.1,0.8c0,0.1,0,0.3,0,0.4c0,0.2,0,0.4,0,0.7c0,0.2,0,0.3,0,0.4l0.1,0.4l-0.4-0.1
			c0,0-0.1,0-0.2,0c0,0-0.1,0-0.2,0c-0.3-0.1-0.6-0.1-1.1-0.2c0,0,0,0,0,0l-0.1,0c0,0,0,0-0.1,0c-0.2,0-0.3,0-0.5,0
			c-0.8,0-1.6,0-2.5,0.1l-0.1,0c-0.1,0-0.1,0-0.2,0C56.3,151.6,59,153.2,63.2,154.9z"/>
		<g>
			<path class="st2" d="M43.7,116.7c0,0.7,0,1.4,0.1,2.1c0,0.4,0,0.8,0.1,1.2c0,0.1,0,0.2,0,0.2c0,0.3,0.1,0.7,0.1,1
				c0.3,2.2,0.8,4.4,1.4,6.6c0.1,0.4,0.3,0.8,0.4,1.2c1.6,4.8,4.2,9.7,7.7,14.4c0.2,0.2,0.3,0.5,0.5,0.7l0.1,0.1
				c0.3,0.4,0.6,0.8,1,1.2c0.1,0.1,0.2,0.3,0.3,0.4c0.1,0.1,0.2,0.3,0.4,0.5c0.2,0.2,0.4,0.5,0.6,0.7c0.2,0.3,0.4,0.5,0.7,0.8
				c0.3,0.3,0.6,0.6,0.9,1c0.2,0.2,0.3,0.4,0.5,0.6c0.2,0.2,0.3,0.3,0.4,0.5c0.2,0,0.3,0,0.4,0.1c0,0,0.1,0,0.1,0v-0.1
				c-0.3-0.6-0.6-1.2-1-1.9l-0.3-0.6c-0.3-0.7-0.7-1.5-1-2.2c-0.1-0.2-0.2-0.4-0.3-0.6c-1.2-2.7-2.1-5.5-2.9-8.2
				c-0.2-0.6-0.3-1.2-0.4-1.8c-0.2-0.6-0.3-1.2-0.4-1.8c-0.1-0.6-0.2-1.2-0.3-1.8l0-0.3c-0.1-0.9-0.3-1.8-0.4-2.7
				c0-0.4-0.1-0.8-0.1-1.3c0-0.5-0.1-1.1-0.1-1.6c-0.1-1.9-0.1-3.9,0.1-5.8c0.1-1.2,0.2-2.5,0.3-3.7c1-10.7,1.9-20.1-6.3-36
				c0.2,5.3,0.1,16-2.4,32.6C43.8,113.7,43.7,115.2,43.7,116.7z"/>
		</g>
		<g>
			<path class="st2" d="M33.7,112.1c-2.7,18.2,12.6,31.5,22,37.8c0.2,0,0.4,0,0.6,0c0,0,0.1,0,0.1,0c0,0,0,0,0,0c0.1,0,0.3,0,0.4,0
				h0.1c-3.1-3.5-5.8-7.1-8.1-10.9c-0.1-0.2-0.2-0.4-0.3-0.5c-0.1-0.2-0.2-0.4-0.3-0.6c-0.2-0.4-0.4-0.7-0.6-1.1
				c-0.1-0.2-0.2-0.4-0.3-0.6l-0.6-1.1c-0.1-0.2-0.2-0.4-0.3-0.7l-0.2-0.5c-0.2-0.4-0.3-0.8-0.5-1.2c-0.1-0.2-0.1-0.4-0.2-0.6
				c-0.1-0.2-0.2-0.4-0.3-0.6c-0.3-0.8-0.6-1.7-0.9-2.5c-0.1-0.4-0.3-0.8-0.4-1.3c-0.1-0.4-0.2-0.8-0.4-1.3
				c-0.1-0.2-0.1-0.5-0.2-0.7l-0.2-0.7c-0.1-0.3-0.1-0.5-0.2-0.8c-0.1-0.5-0.2-1-0.3-1.5c-0.1-0.5-0.2-1-0.2-1.5
				c-0.1-0.5-0.1-1.1-0.2-1.6c0-0.3,0-0.5-0.1-0.8c-0.1-2.3-0.1-4.5,0.2-6.8c2.5-19.8,3-42.2-12-58c1.5,5.5,4.6,19.4,4.6,37.1
				C35.2,97.7,34.7,104.7,33.7,112.1z"/>
		</g>
		<g>
			<path class="st2" d="M53.7,123.1c0,0.9,0,1.8,0.1,2.7c0,0.3,0,0.6,0.1,0.9c0,0.3,0,0.5,0.1,0.8c0,0.2,0,0.3,0.1,0.5
				c0,0.3,0,0.5,0.1,0.8c0,0.3,0.1,0.5,0.1,0.8l0,0.1c0,0.2,0.1,0.4,0.1,0.6l0.2,1c0,0.3,0.1,0.6,0.2,0.9l0.1,0.5
				c0,0.2,0.1,0.4,0.1,0.6c0,0.2,0.1,0.4,0.1,0.6c0.1,0.3,0.1,0.6,0.2,0.9c0.1,0.3,0.1,0.6,0.2,0.8c0.1,0.6,0.3,1.1,0.5,1.7l0,0.1
				c0.1,0.2,0.1,0.5,0.2,0.7c0.2,0.7,0.5,1.5,0.7,2.2l0.2,0.5c0.5,1.4,1,2.7,1.6,4c0.2,0.4,0.4,0.9,0.6,1.3c0.1,0.2,0.2,0.5,0.3,0.7
				l0,0.1c0.1,0.2,0.2,0.3,0.2,0.5l0.2-0.6c0.1-0.2,0.1-0.3,0.2-0.5c-0.5-2.3-0.9-4.6-1.2-6.8c-0.3-2.3-0.5-4.5-0.6-6.8
				c-0.2-4.4,0-8.1,0.2-11.8v-0.2c0.4-8.2,0.8-14.9-3.4-23.2c0,3.3-0.3,10-1.5,21.8C53.7,120.7,53.7,121.9,53.7,123.1z"/>
		</g>
	</g>
	<path class="st2" d="M109.5,11.8c34.3,0,66.1,10.7,92.2,28.8c-3.6,11.1-8.9,29.7-8.9,49.6c0,20.7,5,33.9,5,33.9
		c-13.4,21.6-40.3,45.6-60.9,62.3c-15.5,12.5-27.4,20.9-27.4,20.9s-11.9-8.3-27.4-20.9c-20.6-16.7-47.5-40.7-60.9-62.3
		c0,0,5-13.2,5-33.9c0-19.9-5.3-38.5-8.9-49.6C43.4,22.4,75.2,11.8,109.5,11.8 M109.5,8.3C75.6,8.3,43,18.5,15.3,37.7l-2.1,1.5
		l0.8,2.5c5.9,17.9,8.7,33.8,8.7,48.5c0,19.8-4.7,32.5-4.7,32.6l-0.6,1.6l0.9,1.5C32,148,59.4,172.5,80,189.1
		c15.4,12.4,27.4,20.9,27.5,21l2,1.4l2-1.4c0.1-0.1,12.2-8.6,27.5-21c20.6-16.6,48-41.1,61.7-63.2l0.9-1.5l-0.6-1.6
		c0-0.1-4.7-12.9-4.7-32.6c0-14.7,2.9-30.6,8.7-48.5l0.8-2.5l-2.1-1.5C176,18.5,143.4,8.3,109.5,8.3L109.5,8.3z"/>
</g>
</svg>
