<?xml version="1.0" encoding="UTF-8"?>
<svg id="_레이어_2" data-name="레이어 2" xmlns="http://www.w3.org/2000/svg" viewBox="0 0 233.79 65.46">
  <defs>
    <style>
      .cls-1 {
        fill: #040000;
      }
    </style>
  </defs>
  <g id="_레이어_1-2" data-name="레이어 1">
    <path class="cls-1" d="m0,0v14.96h14.96v-3.74h1.87v3.74h14.96V0H0Zm16.83,7.48h-1.87v-3.74h1.87v3.74Z"/>
    <polygon class="cls-1" points="231.92 7.48 231.92 3.74 233.79 3.74 233.79 0 201.99 0 201.99 11.22 203.86 11.22 203.86 14.96 233.79 14.96 233.79 7.48 231.92 7.48"/>
    <path class="cls-1" d="m65.46,0h-31.79v14.96s31.8,0,31.8,0V0Zm-18.7,7.48v-3.74s1.87,0,1.87,0v3.74s-1.87,0-1.87,0Zm3.79,3.79v-3.74s1.87,0,1.87,0v3.74s-1.87,0-1.87,0Z"/>
    <path class="cls-1" d="m130.92,3.74V0h-29.92v14.96h31.8V3.74h-1.87Zm-13.09,7.48h-1.87v-3.74h1.87v3.74Z"/>
    <polygon class="cls-1" points="99.13 0 67.33 0 67.33 14.96 99.13 14.96 99.13 11.22 97.26 11.22 97.26 7.48 99.13 7.48 99.13 0"/>
    <polygon class="cls-1" points="168.33 0 168.33 14.96 198.25 14.96 198.25 11.22 200.12 11.22 200.12 7.48 198.25 7.48 198.25 3.74 200.12 3.74 200.12 0 168.33 0"/>
    <polygon class="cls-1" points="134.66 0 134.66 14.96 166.46 14.96 166.46 11.22 164.59 11.22 164.59 3.74 166.46 3.74 166.46 0 134.66 0"/>
    <path class="cls-1" d="m134.66,33.67v14.96s14.96,0,14.96,0v-3.74s1.87,0,1.87,0v3.74s13.09,0,13.09,0v-3.74s1.87,0,1.87,0v-11.22s-31.79,0-31.79,0Zm16.83,7.48h-1.87v-3.74s1.87,0,1.87,0v3.74Z"/>
    <polygon class="cls-1" points="0 48.63 0 33.67 31.79 33.67 31.8 48.63 16.83 48.63 16.83 44.89 14.96 44.89 14.96 48.63 0 48.63"/>
    <path class="cls-1" d="m67.33,48.63h29.92v-3.74s1.87,0,1.87,0v-11.22s-31.8,0-31.8,0v14.96Zm14.96-11.22h1.87v3.74s-1.87,0-1.87,0v-3.74Z"/>
    <path class="cls-1" d="m132.79,48.63h-29.92v-3.74s-1.87,0-1.87,0v-11.22s31.8,0,31.8,0v14.96Zm-14.96-11.22h-1.87v3.74s1.87,0,1.87,0v-3.74Z"/>
    <path class="cls-1" d="m65.46,33.67h-31.79v14.96s31.8,0,31.8,0v-14.96Zm-14.96,11.22h-1.87v-3.74s1.87,0,1.87,0v3.74Z"/>
    <polygon class="cls-1" points="200.12 48.63 168.33 48.63 168.33 44.89 170.2 44.89 170.2 41.15 168.33 41.15 168.33 33.67 200.12 33.67 200.12 37.41 198.25 37.41 198.25 41.15 200.12 41.15 200.12 48.63"/>
    <g>
      <polygon class="cls-1" points="117.83 16.83 117.83 31.8 132.79 31.8 132.79 28.05 134.66 28.05 134.66 31.8 149.62 31.8 149.62 28.05 147.78 28.05 147.78 24.31 149.62 24.31 149.62 16.83 134.66 16.83 134.66 20.57 132.79 20.57 132.79 16.83 117.83 16.83"/>
      <polygon class="cls-1" points="16.83 16.83 16.83 31.8 31.79 31.8 31.79 28.05 33.67 28.05 33.67 31.8 48.63 31.8 48.63 16.83 33.67 16.83 33.67 20.57 31.79 20.57 31.79 16.83 16.83 16.83"/>
      <polygon class="cls-1" points="185.16 31.8 185.16 16.83 216.95 16.83 216.95 31.8 207.6 31.8 207.6 28.05 205.73 28.05 205.73 31.8 196.38 31.8 196.38 28.05 194.51 28.05 194.51 31.8 185.16 31.8"/>
      <polygon class="cls-1" points="82.29 31.8 50.5 31.8 50.5 28.05 52.37 28.05 52.37 24.31 50.5 24.31 50.5 16.83 82.29 16.83 82.29 24.31 80.42 24.31 80.42 28.05 82.29 28.05 82.29 31.8"/>
      <polygon class="cls-1" points="114.09 28.05 114.09 31.8 84.16 31.8 84.16 28.05 86.03 28.05 86.03 24.31 84.16 24.31 84.16 16.83 115.96 16.83 115.96 28.05 114.09 28.05"/>
      <polygon class="cls-1" points="183.29 31.8 151.49 31.8 151.49 16.83 181.42 16.83 181.42 20.57 183.29 20.57 183.29 31.8"/>
      <polygon class="cls-1" points="117.83 50.5 117.83 57.98 119.7 57.98 119.7 61.72 117.83 61.72 117.83 65.46 132.79 65.46 132.79 61.72 134.66 61.72 134.66 65.46 149.62 65.46 149.62 61.72 147.75 61.72 147.75 57.98 149.62 57.98 149.62 50.5 134.66 50.5 134.66 54.24 132.79 54.24 132.79 50.5 117.83 50.5"/>
      <polygon class="cls-1" points="84.16 50.5 84.16 65.46 115.96 65.46 115.96 50.5 106.61 50.5 106.61 54.24 104.74 54.24 104.74 50.5 95.39 50.5 95.38 54.24 93.51 54.24 93.51 50.5 84.16 50.5"/>
      <polygon class="cls-1" points="50.5 50.5 50.5 65.46 80.42 65.46 80.42 61.72 82.29 61.72 82.29 50.5 67.33 50.5 67.33 54.24 65.46 54.24 65.46 50.5 50.5 50.5"/>
      <polygon class="cls-1" points="48.63 50.5 48.63 65.46 16.83 65.46 16.83 50.5 31.8 50.5 31.79 54.24 33.67 54.24 33.67 50.5 48.63 50.5"/>
      <polygon class="cls-1" points="151.49 50.5 151.49 61.72 153.36 61.72 153.36 65.46 181.42 65.46 181.42 61.72 183.29 61.72 183.29 50.5 168.33 50.5 168.33 54.24 166.46 54.24 166.46 50.5 151.49 50.5"/>
      <polygon class="cls-1" points="185.16 65.46 216.95 65.46 216.95 61.72 215.08 61.72 215.08 57.98 216.95 57.98 216.95 50.5 185.16 50.5 185.16 54.24 187.03 54.24 187.03 57.98 185.16 57.98 185.16 65.46"/>
    </g>
    <polygon class="cls-1" points="233.79 33.67 201.99 33.67 201.99 44.89 203.86 44.89 203.86 48.63 231.92 48.63 231.92 44.89 233.79 44.89 233.79 33.67"/>
  </g>
</svg>